<svg xmlns="http://www.w3.org/2000/svg" width="77.113" height="101.97" xmlns:v="https://vecta.io/nano"><path d="M30.934 4.22l-16.677 7.222 16.673 7.183zM1.267 43.406v.6S8.4 49.238 4.58 62a29.59 29.59 0 0 0-.733 15.188l52.058-33.78zM20.5 27.64v-5.145H6.57l-5.277 9.277h74.53l-5.277-9.277h-13.93v5.145H44.903v-5.145h-12.7v5.145zm54.294 17.375l-65.8 42.7a32.28 32.28 0 0 0 10.484 8.12s2.945 2 14.432 2.57h1.872a2.68 2.68 0 0 1 2.758 2.3h.024a2.68 2.68 0 0 1 2.758-2.3h1.828c11.523-.57 14.476-2.572 14.476-2.572C80.673 84.117 72.526 62 72.526 62c-2.87-9.58.436-14.917 2.262-16.982zM32.24 3.9v17.323h12.632V3.9l-6.315-2.64-3.6 1.5z" fill="#13b5ea"/><path d="M46.164 4.22l16.673 7.222-16.673 7.183z" fill="#e73129"/><path d="M75.848 44.003v-12.19l-.025-.043H1.293l-.025.043v11.59h54.637L3.847 77.184A24.96 24.96 0 0 0 9 87.709l65.8-42.7a7.58 7.58 0 0 1 1.048-1.006z" fill="#e73028"/><g fill="#968668"><path d="M77.114 31.814c0-.22-.058-.437-.167-.628l-.023-.04-5.277-9.277c-.225-.396-.645-.64-1.1-.64h-13.93c-.7 0-1.266.567-1.266 1.266v3.88h-9.18v-3.88a1.23 1.23 0 0 0-.107-.491 1.2 1.2 0 0 0 .1-.483v-1.633c.172.001.342-.033.5-.1l16.675-7.18c.464-.2.765-.657.765-1.163s-.3-.962-.765-1.162l-16.67-7.225c-.278-.12-.6-.134-.878-.042a1.27 1.27 0 0 0-.409-.276L39.064.102c-.326-.136-.692-.136-1.018 0L31.73 2.74c-.155.065-.296.16-.414.28-.3-.095-.605-.08-.885.04L13.757 10.28c-.464.2-.765.657-.765 1.163s.3.962.765 1.162l16.676 7.182a1.25 1.25 0 0 0 .51.1v1.63a1.19 1.19 0 0 0 .108.49 1.23 1.23 0 0 0-.105.484v3.88h-9.18v-3.877c0-.336-.133-.658-.37-.895s-.56-.37-.895-.37H6.57c-.455 0-.875.244-1.1.64l-5.3 9.316c-.11.19-.167.408-.167.628V44a1.28 1.28 0 0 0 .511 1.016c.2.153 3.933 3.062 3.933 9.842a23.62 23.62 0 0 1-1.074 6.753c-.987 3.043-1.48 6.226-1.458 9.425a29.38 29.38 0 0 0 .7 6.423 26.23 26.23 0 0 0 5.412 11.053 33.68 33.68 0 0 0 10.824 8.409c.59.366 4.04 2.19 15.005 2.74h1.936a1.43 1.43 0 0 1 1.5 1.155 1.28 1.28 0 0 0 2.546 0c.136-.71.78-1.205 1.5-1.154h1.89c11.056-.548 14.493-2.393 15.057-2.746 12.344-6.3 15.9-15.573 16.708-22.247a31.08 31.08 0 0 0-1.24-13.058 23.35 23.35 0 0 1-1.057-6.678 13.45 13.45 0 0 1 3.059-9.083 6.67 6.67 0 0 1 .857-.834 1.28 1.28 0 0 0 .51-1.016zM46.164 4.22l16.673 7.222-16.67 7.182V4.492zm-15.23 14.4L14.26 11.437l16.674-7.222zm1.3-14.123l4.95 5.027-2.87 3a7.6 7.6 0 0 0-1.694 2.428c-.264.696-.296 1.46-.09 2.174.23.777.65 1.485 1.222 2.06.706.856 1.755 1.354 2.864 1.36a3.59 3.59 0 0 0 1.933-.732 3.61 3.61 0 0 0 1.958.752c1.11-.006 2.16-.504 2.864-1.36.573-.574.993-1.28 1.223-2.06.205-.716.173-1.478-.092-2.174a7.59 7.59 0 0 0-1.694-2.428l-2.888-3.02 4.95-5.012v16.7h-12.63zm6.315 6.456l2.965 3.1a6.34 6.34 0 0 1 1.153 1.5 1.87 1.87 0 0 1 .127 1.208c-.103.445-.33.852-.652 1.175-.38.45-.942.7-1.53.685-.76-.153-1.45-.552-1.962-1.136l-.082-.113a3.69 3.69 0 0 1-2.064 1.231c-.587.016-1.15-.236-1.528-.685a2.44 2.44 0 0 1-.652-1.175c-.093-.406-.048-.83.127-1.208.307-.555.695-1.06 1.153-1.5zm0-9.692l4.773 1.996-4.778 4.837L33.76 3.26l1.2-.5zM6.57 22.495h13.93v5.145H32.21v-5.145h12.7v5.145h11.713v-5.145h13.93l4.557 8H2.012zm-1.99 39.5C7.624 51.822 3.71 46.437 2 44.67h49.627L3.584 75.85c-.77-4.63-.428-9.377.995-13.85zm67.958 0s8.143 22.118-14.9 33.832c0 0-2.952 2-14.476 2.572h-1.828a2.68 2.68 0 0 0-2.758 2.3h-.025a2.68 2.68 0 0 0-2.758-2.3h-1.873c-11.487-.574-14.432-2.57-14.432-2.57-3.625-1.776-6.894-4.2-9.645-7.154l63.177-40.994c-1.444 2.873-2.5 7.528-.48 14.316zm3.158-17.87a8.69 8.69 0 0 0-.9.888l-65.8 42.7a26.45 26.45 0 0 1-.775-.992 24.86 24.86 0 0 1-4.07-8.306q-.17-.617-.308-1.227l52.063-33.78H1.267V31.815l.025-.043h74.53l.025.043v12.188s-.057.042-.154.123z"/><path d="M12.924 53.738l4.05-2.943c.02-.013.042-.02.066-.023V47.56l-1.92-1.395a8.98 8.98 0 0 0-4.777 2.922l.027 3.1zM23.67 52.2l.03-3.427-.1-.1q-.138-.144-.282-.28l-.14-.133-.4-.335-.168-.132-.317-.235-.14-.1q-.225-.153-.46-.3l-.127-.073-.5-.265h-.005a8.92 8.92 0 0 0-1.845-.66l-1.883 1.368v3.312l3.887 2.825zm2.373 1.604l-.028-.223-.047-.284-.017-.1-2.138-.716-2.312 1.407a.15.15 0 0 1 .005.1l-1.584 4.875 1.975 1.4-.01.013 2.77-.545.043-.065q.137-.215.263-.437l.042-.074.256-.5.062-.136q.1-.2.172-.4l.056-.14q.092-.247.168-.5l.058-.2.087-.336.054-.235q.05-.236.087-.475l.036-.285.028-.256.024-.315.008-.223.007-.285c0-.3-.016-.6-.045-.888l-.02-.174zm-13.29.2l-2.5-1.524-1.85.62c-.473 2.32-.001 4.73 1.3 6.7l2.48.487-.013-.02 2.126-1.507zm1.758 4.998l-2.047 1.45.262 2.17c1.003.573 2.107.946 3.25 1.1l.056.007.477.047.106.008.544.018h.017l.492-.015.12-.01.408-.038.1-.01.46-.07.03-.006a9 9 0 0 0 2.5-.859l.014-.007.282-2.34-2.02-1.454H14.5z" stroke="#968668" stroke-width="1.017"/></g><path d="M26.246 53.053c-.34-1.662-1.116-3.2-2.253-4.43-.005-.01-.01-.02-.018-.03l-.24-.242-.05-.052c-.303-.3-.626-.58-.968-.838l-.043-.032c-.335-.25-.687-.476-1.053-.677l-.16-.085-.454-.223-.32-.14-.228-.1-.5-.176-.046-.015-.667-.18h-.01a9.19 9.19 0 0 0-4.119-.008h0-.013c-1.22.278-2.372.803-3.384 1.54h-.005q-.287.21-.556.44l-.07.06-.5.46-.062.065q-.214.22-.413.453l-.053.058-.005.01a9.23 9.23 0 0 0-1.933 7.971l.006.025a9.31 9.31 0 0 0 .381 1.253l.034.085.253.587.28.536.08.136.317.512a9.33 9.33 0 0 0 3.019 2.828h0l.036.02q.237.137.482.26l.03.015a9.21 9.21 0 0 0 1.1.462l.025.008c.56.19 1.136.327 1.722.407l.1.012.468.047.127.01.564.02h.017l.514-.016c.05 0 .1-.007.146-.01l.394-.037.144-.018q.205-.028.407-.063l.116-.02.472-.1.045-.01q.265-.066.525-.148l.068-.023.4-.14.21-.083.24-.1.262-.12.39-.192c1.36-.736 2.51-1.78 3.358-3.055.007-.006.014-.013.02-.02l.137-.224.092-.15a9.21 9.21 0 0 0 .529-1.031l.08-.184.13-.326.054-.157q.1-.292.182-.59l.06-.23.074-.32.05-.273q.045-.252.075-.508l.028-.252.025-.328.02-.53c0-.61-.06-1.217-.178-1.815zm-7.006-6.88a8.92 8.92 0 0 1 1.845.66h.005l.5.265.127.073.46.29.14.1.317.235.168.132.39.335.14.133q.144.137.282.28l.09.1-.03 3.427-2.424 1.476-3.887-2.825v-3.31l1.883-1.368zm-4.12-.008l1.92 1.395v3.213c-.024.002-.046.01-.066.023l-4.05 2.943-2.553-1.552-.027-3.1c1.242-1.46 2.917-2.483 4.782-2.922zm-6.9 8.7a8.99 8.99 0 0 1 .18-1.766l1.85-.62 2.5 1.524 1.546 4.76-2.126 1.507.013.02-2.48-.487a8.9 8.9 0 0 1-1.488-4.936zm13.356 5.59l-.282 2.34-.014.007a9 9 0 0 1-2.5.859l-.03.006-.46.07-.092.01-.408.038-.12.01-.492.015h-.017c-.182 0-.363-.007-.544-.018l-.106-.008-.477-.048-.056-.007c-1.144-.154-2.248-.527-3.25-1.1l-.262-2.17 2.047-1.45h5.043l2.027 1.437zM26.1 55.15l-.008.223q-.01.158-.024.315l-.028.256-.036.285q-.037.24-.087.475l-.054.235q-.04.17-.087.336l-.058.2-.168.5-.056.14-.172.41-.062.136-.256.5-.042.074q-.125.222-.263.437l-.043.066-2.77.544.01-.013-1.975-1.4 1.584-4.875c.01-.033.008-.068-.005-.1l2.312-1.407 2.138.716.017.095.047.284.03.223.02.175.045.888-.008.284z" fill="#81705e"/><path d="M61.873 84.15l-2.36-3.983V75.33l1.235-1.235v-6.072h-3.346v4.08H54.49V68.03h-4.816v4.074h-2.915v-4.08h-3.346v6.072l1.235 1.235v4.836l-2.36 3.983v6.994h19.585z" fill="#968668"/><path d="M59.676 80.125v-4.728l1.235-1.235v-6.3H57.25v4.08h-2.6v-4.074H49.51v4.074h-2.6v-4.08H43.25v6.3l1.235 1.235v4.728l-2.36 3.983v7.2h19.9v-7.2zm1.5 3.158h-4.183v-3.408h2.365v.335zm-8.92-3.722v-3.405h7.1v3.405zm4.42.317v3.406h-2.41c-.478-.74-1.3-1.188-2.18-1.188s-1.702.447-2.18 1.188h-2.9v-3.41zm.887-11.694h3.03v3.77h-3.03zm-.57 4.086h3.6v1.755l-1.235 1.235v.573h-2.365zm-4.736-4.08h2.076v3.764h-2.076zm-2.43 0h2.112v3.764h-2.112zm-2.818 4.08h9.665v3.57h-9.66zm4.93 3.886v3.405h-7.137v-3.405zm-8.373-7.972h3.03v3.77h-3.03zm0 5.848V72.27h3.126v3.57H44.8v-.573zm1.235 6.18v-.335h1.89v3.406h-3.71zm-2.36 3.983l.353-.6h6.935c-.16.342-.245.716-.245 1.094v2.312h-7.043zm4.25 6.793h-4.25v-3.664h4.25zm.317-3.666h2.477v3.666h-2.473zm2.793-2.63c.026-1.242 1.04-2.235 2.282-2.235s2.257.993 2.282 2.235v6.295h-4.565zm6.872 6.295h-2v-3.664h2zm5.04 0H56.99v-3.664h4.732zm0-3.983h-7.03v-2.312a2.58 2.58 0 0 0-.244-1.094h6.92l.353.6V87z" fill="#83715e"/><path d="M61.115 41.858v-1.642h1.365v1.642zm9.947 0v-1.642h1.365v1.642zm-63.7-3.403l.956-3.166 1 3.166zm1.73-5.164H7.54l-2.753 8.567h1.548l.586-1.94h2.875l.618 1.94h1.556zm5.054 1.465h1.116a10.12 10.12 0 0 1 1.046.029.84.84 0 0 1 .538.33 1.15 1.15 0 0 1 .189.686 1.25 1.25 0 0 1-.145.632.8.8 0 0 1-.4.356 4.61 4.61 0 0 1-1.284.1h-1.058v-2.134zm0 7.1v-3.58h.3a2.04 2.04 0 0 1 .732.1 1.13 1.13 0 0 1 .437.354c.28.4.537.82.767 1.25l1.02 1.88h1.7l-.876-1.674a10.23 10.23 0 0 0-.8-1.393c-.214-.277-.47-.52-.756-.72a2.1 2.1 0 0 0 1.385-.79 2.6 2.6 0 0 0 .466-1.59c.01-.468-.098-.93-.312-1.348-.174-.36-.466-.65-.828-.82a4.35 4.35 0 0 0-1.654-.23H12.7v8.567h1.444zM19.5 39.05l1.4-.158a2.25 2.25 0 0 0 .509 1.245 1.36 1.36 0 0 0 1.03.4 1.4 1.4 0 0 0 1.039-.353 1.13 1.13 0 0 0 .35-.825.88.88 0 0 0-.148-.516c-.134-.168-.312-.297-.514-.37q-.25-.1-1.146-.37a3.59 3.59 0 0 1-1.616-.845c-.433-.47-.666-1.088-.65-1.726a2.52 2.52 0 0 1 .31-1.225 2.08 2.08 0 0 1 .887-.87c.436-.2.916-.314 1.4-.3a2.64 2.64 0 0 1 2.013.717 2.8 2.8 0 0 1 .712 1.914l-1.445.06a1.61 1.61 0 0 0-.393-.955c-.25-.2-.574-.315-.9-.3a1.42 1.42 0 0 0-.971.311.67.67 0 0 0-.226.533c-.003.196.075.385.215.522.4.283.837.478 1.3.57a6.09 6.09 0 0 1 1.542.614 2.21 2.21 0 0 1 .784.872 2.96 2.96 0 0 1 .285 1.366 2.9 2.9 0 0 1-.341 1.381 2.19 2.19 0 0 1-.959.957c-.483.224-1.013.33-1.545.313-.766.05-1.517-.225-2.07-.758a3.61 3.61 0 0 1-.863-2.21zm7 2.808V33.3h5.263v1.464h-3.82v1.88h3.562V38.1h-3.562v2.3h3.957v1.464zm6.634 0V33.3h1.4l2.9 5.7v-5.7h1.345v8.567h-1.45l-2.863-5.574v5.574zm9.026-3.403l.956-3.166 1 3.166zm1.73-5.164h-1.55l-2.754 8.567h1.548l.586-1.94h2.875l.618 1.94h1.556zm3.6 8.564v-8.5h1.445V40.4h3.6v1.456zm8.66.003V33.3h4.887v1.464h-3.443v2h2.968v1.464h-2.968v3.64zm12.288-3.166l1.4.514a3.94 3.94 0 0 1-1.066 2.1 2.7 2.7 0 0 1-1.9.687 2.83 2.83 0 0 1-2.333-1.167 5.05 5.05 0 0 1-.917-3.2 5.31 5.31 0 0 1 .919-3.324 2.91 2.91 0 0 1 2.418-1.184 2.69 2.69 0 0 1 2.125.931 3.56 3.56 0 0 1 .732 1.582l-1.425.416a1.93 1.93 0 0 0-.53-1.057 1.35 1.35 0 0 0-.974-.388c-.518-.007-1.003.25-1.288.683-.382.67-.553 1.442-.492 2.212a4.15 4.15 0 0 0 .485 2.312 1.48 1.48 0 0 0 1.262.689 1.3 1.3 0 0 0 .984-.439 2.77 2.77 0 0 0 .6-1.377z" fill="#fff"/></svg>