<?xml version="1.0" encoding="utf-8"?>
<!-- Generator: Adobe Illustrator 16.0.0, SVG Export Plug-In . SVG Version: 6.00 Build 0)  -->
<!DOCTYPE svg PUBLIC "-//W3C//DTD SVG 1.1//EN" "http://www.w3.org/Graphics/SVG/1.1/DTD/svg11.dtd">
<svg version="1.1" id="Capa_1" xmlns="http://www.w3.org/2000/svg" xmlns:xlink="http://www.w3.org/1999/xlink" x="0px" y="0px"
	 width="538px" height="792px" viewBox="0 0 538 792" enable-background="new 0 0 538 792" xml:space="preserve">
<g>
	<path fill-rule="evenodd" clip-rule="evenodd" fill="#F2B700" d="M6.792,113.146v441.21c4.085,5.559,10.775,9.942,15.919,14.832
		c5.339,5.075,10.936,9.416,16.267,14.503c10.391,9.915,22.277,18.857,32.77,28.781c10.524,9.956,22.211,18.893,32.774,28.777
		c5.405,5.06,10.917,9.447,16.259,14.511c3.68,3.486,12.528,11.768,16.338,14.435c4.275,2.995,12.455,10.577,16.431,14.348
		c5.347,5.068,10.937,9.406,16.266,14.503c10.374,9.923,22.265,18.854,32.768,28.784c10.496,9.925,22.432,18.863,32.771,28.78
		c4.295,4.121,11.766,10.84,16.467,14.313c5.771,4.265,10.125,9.86,16.646,14.145h1.859c6.521-4.284,10.874-9.88,16.645-14.145
		c4.702-3.474,12.173-10.192,16.469-14.313c10.339-9.917,22.274-18.855,32.77-28.78c10.502-9.93,22.395-18.861,32.768-28.784
		c5.328-5.097,10.919-9.435,16.267-14.503c3.978-3.771,12.156-11.353,16.431-14.348c3.81-2.667,12.659-10.948,16.338-14.435
		c5.341-5.063,10.854-9.451,16.26-14.511c10.562-9.885,22.249-18.821,32.773-28.777c10.494-9.924,22.379-18.866,32.77-28.781
		c5.331-5.087,10.929-9.428,16.267-14.503c5.146-4.89,11.833-9.273,15.919-14.832v-441.21c-0.72-0.981-1.566-3.077-3.254-3.077
		h-2.323c-2.801,0-8.522,14.375-10.068,17.288c-3.05,5.744-6.523,11.51-10.196,16.726c-6.055,8.599-17.447,22.676-31.793,22.676
		h-0.928c-14.694,0-27.313-14.819-34.058-23.169c-3.694-4.575-8.702-11.708-11.493-16.821c-1.649-3.024-3.584-5.88-5.27-9.08
		c-1.393-2.648-2.91-7.62-6.349-7.62h-1.859c-4.025,0-31.313,55.811-73.436,55.811h-1.395c-16.331,0-32.692-13.992-41.251-22.082
		c-5.441-5.144-9.779-10.83-14.446-16.663c-2.372-2.963-10.485-17.067-14.021-17.067h-0.929c-3.441,0-12.24,14.655-14.403,17.584
		c-3.766,5.104-10.083,12.43-14.762,16.804c-5.724,5.35-11.202,9.854-18.144,14.048c-4.095,2.473-17.776,8.223-24.734,7.375
		l-12.094-1.248c-1.097-0.772-8.178-3.287-10.375-4.314c-2.952-1.383-6.551-3.689-9.061-5.496
		c-6.139-4.419-9.913-8.175-15.298-13.22c-4.925-4.614-8.96-10.331-13.256-15.593c-1.784-2.186-10.683-15.94-12.423-15.94h-1.859
		c-3.746,0-10.334,13.643-12.45,16.793c-3.968,5.913-7.523,11.273-11.912,16.864c-6.155,7.842-20.205,24.791-33.272,24.791h-3.718
		c-11.742,0-24.671-16.648-29.435-24.465c-3.518-5.776-6.694-10.863-9.764-17.135c-1.445-2.952-6.717-16.848-9.604-16.848h-2.323
		C8.359,110.07,7.514,112.166,6.792,113.146z"/>
	<path fill-rule="evenodd" clip-rule="evenodd" fill="#FFFFFF" d="M236.861,157.97v587.988c0,1.051,29.467,27.062,32.535,29.003
		c3.068-1.941,32.535-27.952,32.535-29.003V159.289c0-0.108-15.649-15.73-17.316-17.465c-3.169-3.299-13.741-18.427-15.219-19.45
		c-0.063,0.044-13.598,17.253-14.873,18.897C252.409,144,239.628,157.272,236.861,157.97z"/>
	<path fill-rule="evenodd" clip-rule="evenodd" fill="#269C41" d="M342.833,174.23h-1.859c-11.248,0-23.422-5.369-30.211-9.668
		v573.925c1.721-0.436,29.392-25.419,32.876-28.682c3.512-3.288,32.657-27.809,32.657-29.327V163.244
		c-2.034,0.514-10.376,5.595-14.68,7.213C356.374,172.429,349.913,174.23,342.833,174.23z"/>
	<path fill-rule="evenodd" clip-rule="evenodd" fill="#269C41" d="M162.496,680.919l65.535,57.568V164.562
		c-8.923,4.464-17.87,9.668-31.605,9.668h-0.465c-15.044,0-23.843-6.172-33.464-10.986V680.919z"/>
	<path fill-rule="evenodd" clip-rule="evenodd" fill="#FFFFFF" d="M385.128,156.213v516.795c5.16-3.267,63.675-56.095,63.675-56.69
		V166.32c0-0.908-8.333-8.55-9.638-9.784c-2.914-2.759-6.532-7.213-8.862-10.515c-1.952-2.764-14.696-22.742-15.429-23.207
		C410.407,130.796,392.602,151.48,385.128,156.213z"/>
	<path fill-rule="evenodd" clip-rule="evenodd" fill="#FFFFFF" d="M90.455,165.441v451.318c0,0.557,58.102,53.016,63.21,56.249
		V157.091c-1.427-2.014-5.898-5.798-8.017-7.801c-3.07-2.902-5.041-5.491-7.899-8.351c-2.224-2.225-13.614-16.103-13.83-18.565
		c-1.983,0.501-6.387,9.011-7.815,11.068c-2.739,3.947-5.152,7.519-7.894,11.433c-2.157,3.079-5.782,7.924-8.338,10.574
		C98.579,156.791,90.455,164.497,90.455,165.441z"/>
	<path fill-rule="evenodd" clip-rule="evenodd" fill="#269C41" d="M15.623,551.279l66,58.447V171.594
		c-3.947,0.997-8.969,5.273-15.338,5.273h-5.577c-11.038,0-22.108-10.628-27.536-16.591c-3.71-4.079-6.138-8.135-9.371-12.673
		c-2.454-3.444-6.036-11.472-8.178-13.802V551.279z"/>
	<path fill-rule="evenodd" clip-rule="evenodd" fill="#269C41" d="M475.297,175.109h-2.79c-6.935,0-10.267-2.94-14.872-3.955
		l0.091,438.227l65.443-58.102V133.361c-1.05,0.727-6.986,11.242-8.551,13.447c-2.97,4.183-6.315,9.156-9.918,12.597
		C498.112,165.697,488.067,175.109,475.297,175.109z"/>
	<polygon fill-rule="evenodd" clip-rule="evenodd" fill="#F2B700" points="268.932,7.238 254.518,47.057 210.137,48.393 
		245.3,73.475 232.679,114.025 269.396,90.734 306.196,114.002 293.671,73.728 328.425,48.107 284.765,47.335 	"/>
	<path fill-rule="evenodd" clip-rule="evenodd" fill="#362F28" d="M395.353,387.804h26.957c10.438,0,21.381-2.802,21.381-12.305
		v-3.956c0-5.412-5.002-9.059-9.761-10.106c3.312-2.722,7.437-3.603,7.437-10.107v-2.198c0-6.44-7.139-10.986-14.408-10.986h-31.605
		V387.804z"/>
	<polygon fill-rule="evenodd" clip-rule="evenodd" fill="#362F28" points="243.793,387.79 260.544,387.798 262.889,379.454 
		281.261,379.515 283.805,387.804 301.106,387.766 281.48,338.146 263.522,338.206 	"/>
	<path fill-rule="evenodd" clip-rule="evenodd" fill="#362F28" d="M99.285,360.997v3.516c0,14.238,10.447,24.169,25.563,24.169
		h1.859c11.776,0,23.239-7.076,23.222-17.52l-14.392-3.574c-0.481,5.463-3.759,9.228-10.225,9.228c-7.47,0-9.76-6.095-9.76-13.183
		v-1.318c0-6.928,3.42-13.623,10.225-13.623c4.619,0,8.345,3.176,9.34,7.226l14.363-2.831c-0.802-9.11-11.23-15.819-22.31-15.819
		h-2.788C109.346,337.268,99.285,346.8,99.285,360.997z"/>
	<path fill-rule="evenodd" clip-rule="evenodd" fill="#FFFFFF" d="M412.087,376.817h8.364c3.531,0,6.972-1.127,6.972-4.394v-1.757
		c0-1.607-3.216-3.517-5.113-3.517h-10.223V376.817z"/>
	<path fill-rule="evenodd" clip-rule="evenodd" fill="#FFFFFF" d="M412.087,357.481h6.506c3.896,0,6.972-1.165,6.972-4.834
		c0-1.715-1.773-3.955-3.255-3.955h-10.223V357.481z"/>
	<polygon fill-rule="evenodd" clip-rule="evenodd" fill="#FFFFFF" points="266.779,368.386 277.645,368.369 272.649,352.208 
		271.897,352.258 	"/>
</g>
</svg>
