<svg xmlns="http://www.w3.org/2000/svg" width="87.171" height="93.203" fill-rule="evenodd" xmlns:v="https://vecta.io/nano"><path d="M29.314.765a34.24 34.24 0 0 1-.191 3.7l-.255 1.21-.064.19-.127.5-.064.19-.064.255-.127.255-.064.255-.19.383-.064.19-.064.125-.064.19-.32.637-.064.064-.19.383-.064.064-.19.383-.064.064-.127.255-.064.064-.064.127-.064.064-.064.128-.064.064-.064.127-.127.128-.064.127-.064.064-.064.127-.064.064-.064.127-.255.255-.064.128-.128.128-.064.127-.446.446-.064.127-.32.32-.064.127-.446.446-.127.064-.5.5-.127.064-.446.446-.127.064-.064.064-.128.064-.255.255-.127.064-.064.064-.127.064-.19.19-.255.127-.127.128-.127.064-.064.064-.127.064-.127.127-.255.128-.064.064-.255.128-.064.064-.255.127-.064.064-.5.255c-.08.058-.05.07-.19.127l-.19.064-.064.064-.382.19-.19.064-.064.064-.19.064-.382.19-.574.19a3.32 3.32 0 0 1-.446.191l-.255.064-.765.255-1.02.255-.382.064-1.274.19-.7.064h-1.4l-1.21-.128c-.387-.065-.77-.15-1.147-.255l-.574-.19-.255-.064-.382-.19-.19-.064-.637-.32-.127-.128-.382-.19-.064-.064-.127-.064-.127-.127-.127-.064-.064-.064-.13-.063-.255-.255-.128-.064-.255-.255c-.1-.042-.187-.107-.255-.19l-.064-.128-.32-.32-.064-.128-.382-.382-.19-.383-.127-.064-.446-.446-.382-.765h-2.8v9.435L.067 24.8l.19 3.443.064.7.127 1.785.064.574.127 1.4.19 1.594.19 1.72.064.32.19 1.466.064.32.064.446.127.765.064.446.064.32.19 1.148.064.19.064.446.064.32.064.382.064.255.32 1.53.19.893.064.19.127.637.127.5.128.446.064.382.064.19.064.255.064.19.064.32.127.383.19.765.064.128.064.255.064.19.064.32.127.383.064.255.064.127.064.255.064.127c.064.173.1.5.19.7a2.21 2.21 0 0 1 .127.319 6.1 6.1 0 0 0 .191.637l.064.128.19.574.064.128.064.255.19.574c.056.09.05-.01.127.255l.064.255.064.128.064.19.064.127.127.382.064.128.064.19.064.128.064.19.127.255.127.382.127.255.064.19.064.128.064.19.064.127.064.19.255.5.064.19.19.382.064.19.064.127.064.19.064.064.127.255.064.19 1.147 2.3.064.064.5 1.02.064.064c.036.11.078.215.127.32.058.08.07.05.127.19l.064.19.127.127.127.255.064.064.255.5.064.064.064.128.064.064.19.382.064.064.064.128.064.064.064.19.128.127.064.128.064.064.064.19.064.064.064.127.064.064.064.128.064.064.127.255.064.064.064.128.064.064.064.127.127.128.127.255.127.128.064.127.064.064.064.128.064.064.064.128c.058.08.07.05.127.19l.064.19.19.19a10.02 10.02 0 0 1 .7.893l.064.128.064.064.064.127.127.127.064.128.19.19.064.128.127.127.064.128.127.128.064.127.255.255.064.128.127.127.064.128.255.255.064.128.255.255.064.128.32.32.064.128.255.255.064.127.5.5.064.127.382.383.064.127.765.765.064.128c.04.04.133.047.19.128l.064.127c.04.04.133.047.19.128s.025.09.127.19l.127.128.955.956.127.064.382.382.064.128c.04.04.133.047.19.127l.064.127.128.064.446.446.127.064.382.382.127.064.5.5h.127c0 .233.047.15.19.255l.255.255.127.064.382.382.128.064.382.382h.19c0 .233.047.15.19.255l.127.127c.084.06.09.025.19.128h.127c0 .233.047.15.19.255l.064.064.127.064.19.19.127.064.19.19.127.064.127.127.127.064.127.127.128.064.064.064.127.064.18.188.127.064.064.064.128.064.19.19.255.128.127.127.127.064.127.127.255.128.127.127.127.064.064.064.127.064.127.127.255.127.127.128.127.064.064.064.127.064.064.064.127.064.064.064.127.064.064.064.255.127.064.064.127.064.064.064.127.064.19.19.19.064.064.064.127.064.064.064.255.128.127.127.382.19.064.064.127.064.064.064.255.128.064.064.127.064.064.064.382.19.064.064.255.127.064.064.255.128.064.064.382.19.064.064.255.128.064.064.637.32.064.064.128.064.064.064.255.128.19.064.064.064.5.255.064.064.765.382.064.064.5.255.193.05.064.064 3.056 1.536.19.064c.058.036.043.066.19.128l.19.064.382.19.19.064.128.064h1.147c.176-.046.347-.1.5-.19l.064-.064.19-.064.637-.32.19-.064 1.53-.765.382-.128.128-.128 1.147-.574c.11-.03.218-.073.32-.128.11-.08.082-.12.255-.19.155-.048.304-.112.446-.19l.064-.064.382-.19.064-.064.255-.127.064-.064.5-.255.063-.064c.11-.036.215-.08.32-.128l.064-.064.255-.128.064-.064.128-.064.063-.064a2.89 2.89 0 0 0 .319-.127l.064-.064.127-.064.064-.064.382-.19.064-.064.255-.127.064-.064.255-.127.064-.064.127-.064.064-.064.5-.255.128-.128.255-.128.064-.064.255-.127.127-.128.382-.19.128-.127.255-.128.063-.064.128-.064.064-.064.127-.064.064-.064.128-.064.063-.064.128-.064.128-.127.255-.128.063-.064.128-.064.064-.064.127-.064.128-.127.127-.064.064-.064.255-.128.128-.128.127-.064.064-.064.128-.064.127-.127.128-.064.064-.064.127-.064.19-.19.128-.064.064-.064.127-.064.128-.127.127-.064.064-.064.128-.064.255-.255.255-.128.19-.19.128-.064.064-.064.127-.064.057-.054.127-.064c.11-.08.083-.12.255-.19.28-.116.608-.56.892-.765l.127-.128.128-.064.063-.127.128-.064.128-.127.127-.064.19-.19.128-.064.5-.5.128-.064.32-.32.127-.064 3.57-3.443a.66.66 0 0 0 .255-.191l.127-.255.446-.446.064-.128.83-.83.063-.127.255-.255.063-.128c.417-.417.743-.87 1.147-1.275l.064-.128.128-.127.063-.128.19-.19.064-.127.19-.19.064-.127.19-.19.064-.128.064-.064.064-.128.19-.19.063-.128.128-.127.064-.127.064-.064.064-.128c.062-.085.223-.183.255-.32v-.128h.126l.128-.255.063-.064.064-.128.128-.127.063-.128.128-.127.127-.255.128-.127.064-.128.064-.064.064-.127.064-.064.064-.127.064-.064.064-.128.127-.128.128-.255.127-.127.19-.383.127-.127.128-.255.063-.064.064-.128.064-.064.064-.128.063-.064.064-.19.064-.064.064-.128.064-.064.063-.128c.07-.1.036-.008.128-.19.036-.088.08-.173.128-.255l.063-.064.128-.255.064-.064.063-.128.064-.064.382-.765.127-.128.064-.19.255-.5.064-.064.446-.893.063-.064.064-.19.064-.064c.1-.137.192-.487.255-.574s.07-.05.128-.19l.064-.19.444-.883.063-.19.255-.5.063-.19.255-.5.064-.19.255-.5.064-.19.064-.128.128-.382.19-.382.127-.383.128-.255.127-.382.128-.255.064-.255.064-.127.06-.19.128-.255.064-.255.127-.383a3.34 3.34 0 0 0 .191-.446l.063-.255.064-.127.19-.574a2.27 2.27 0 0 0 .127-.319l.064-.255.32-.956.063-.255.128-.382a4.22 4.22 0 0 1 .127-.446l.064-.128.19-.765c.05-.103.093-.2.127-.32l.064-.32.064-.19.064-.32.127-.382.128-.5.127-.446.19-.83.19-.765.064-.383.063-.19.128-.5.064-.383.063-.255.128-.638.066-.26.064-.382.127-.574.128-.765.064-.19c.062-.25.133-.893.19-1.21l.064-.32.063-.446.064-.32.128-.893.063-.32.19-1.466.064-.32.255-2.3.127-1.02.128-1.53.064-.446.063-.893.128-1.72.064-.7.127-2.74.064-1.913V13.45h-2.48l-.7.7-.064.128-.5.574-.32.32-.064.127-.19.19-.064.128-.318.32c-.33.276-.62.612-.956.893l-.128.064-.063.064-.128.064-.128.127-.127.064-.064.064-.382.19-.128.128-.637.32-.19.064-.382.19-.255.064c-.4.116-.62.222-1.083.32l-.382.064-.255.064a18.59 18.59 0 0 1-1.275.128h-1.34a16.63 16.63 0 0 1-2.358-.319l-.255-.064-.32-.064-.19-.064-.5-.128-1.147-.383-.255-.127-.382-.128-.127-.064-.19-.064-.765-.382-.19-.064-.064-.064-.382-.19-.064-.064a2.91 2.91 0 0 1-.319-.128l-.063-.064-.128-.064-.064-.064-.382-.19-.064-.064L66.2 16l-.063-.064-.128-.064-.064-.064-.255-.127-.127-.127-.128-.064-.064-.064-.127-.064-.19-.19-.255-.128-.19-.19-.128-.064-.127-.128c-.084-.06-.09-.025-.19-.128h-.128c0-.232-.047-.15-.19-.255l-.32-.32-.128-.064-1.464-1.462-.32-.446-.32-.32-.063-.128-.128-.127-.064-.128-.19-.19-.127-.255-.19-.19-.127-.255-.128-.128-.064-.127-.063-.064-.064-.19-.064-.064-.064-.128-.064-.064-.127-.255-.064-.064-.19-.383-.064-.064-.255-.5-.064-.19-.065-.127a1.49 1.49 0 0 0-.127-.319l-.064-.064-.19-.574-.064-.128c-.1-.25-.226-.722-.32-1.02-.227-.856-.376-1.73-.446-2.614l-.128-3.315H29.377z" fill="#fff"/><path d="M30.97 2.423a15.66 15.66 0 0 1-1.925 7.446 21.21 21.21 0 0 1-1.851 2.8l-1.084 1.274c-.232.277-1.1.9-1.13 1.228-.183.015-2.216 1.668-2.6 1.925-.915.63-1.885 1.173-2.9 1.624-2.26 1.11-4.73 1.725-7.244 1.806h-.256a12.12 12.12 0 0 1-6.245-1.594c-.797-.5-1.54-1.082-2.215-1.737-.494-.49-1.413-1.787-1.863-2.088 0 5.056.047 9.762.382 14.41.344 4.36.945 8.698 1.8 12.99 1.417 7.622 4.066 14.963 7.843 21.734a54.46 54.46 0 0 0 6.08 8.708c.608.67 1.112 1.3 1.753 1.944a23.77 23.77 0 0 0 1.807 1.892c.5.364 1.392 1.335 1.888 1.808.616.59 1.33 1.14 1.978 1.72 1.3 1.16 2.8 2.125 4.177 3.217.6.488 1.52 1.037 2.2 1.493a45.96 45.96 0 0 0 2.267 1.43c1.125.66 8.827 5.1 9.688 5.1h.064c.874 0 8-4.165 9.22-4.8 1.4-.73 2.933-1.88 4.252-2.76 1.453-.97 2.69-2.015 4.053-3.02.664-.49 1.252-1.1 1.9-1.605.36-.283.556-.524.915-.805.177-.138.3-.324.44-.454s.287-.2.5-.4l1.752-1.753c.616-.616 1.128-1.262 1.72-1.85a37.25 37.25 0 0 0 3.16-3.851c.463-.614 1.087-1.4 1.475-2.03s.954-1.576 1.39-2.178c.955-1.427 1.803-2.922 2.536-4.475.694-1.64 1.51-3.128 2.21-4.865.348-.86.66-1.64.96-2.546.263-.8.594-1.807.906-2.6.675-1.712.94-3.817 1.557-5.52.266-.735.43-2.04.636-2.87.22-.882.432-1.987.58-2.926.065-.408.14-1.117.234-1.487.134-.535.11-1.04.228-1.557.24-1.033.27-2.027.437-3.133.15-1 .2-2.16.355-3.15.127-.825.24-2.44.27-3.235.088-2.247.253-4.5.253-6.824V15.1c-.644.634-1.245 1.3-1.8 2.024-.648.66-1.374 1.24-2.163 1.725-1.846 1.096-3.953 1.673-6.1 1.67h-.255c-4.776-.204-9.328-2.083-12.86-5.306a21.1 21.1 0 0 1-4.067-4.984 16.6 16.6 0 0 1-2.129-6.987V1.658H30.97z"/><path d="M37.658 30.475a16.74 16.74 0 0 0-4.244 2.32 17.74 17.74 0 0 0-3.327 3.3 16.76 16.76 0 0 0-3.39 9.869v.765a16.98 16.98 0 0 0 3.428 9.767 16.53 16.53 0 0 0 3.34 3.289l2 1.3 1.1.552c.2.09 1.084.356 1.084.573v24.736a25.06 25.06 0 0 1 2.889 1.509l2.974 1.424a19.52 19.52 0 0 0 2.982-1.415c.322-.2 2.693-1.458 2.944-1.517V62.223c0-.213 1.82-.956 2.1-1.083a10.86 10.86 0 0 0 1.948-1.238 17.4 17.4 0 0 0 3.288-3.15c.98-1.24 1.782-2.6 2.384-4.07.666-1.66 1.088-3.405 1.254-5.185v-1.72c-.122-3.5-1.317-6.898-3.426-9.706-.965-1.216-2.07-2.315-3.29-3.274a11.29 11.29 0 0 0-1.971-1.279c-.732-.4-1.492-.748-2.273-1.042V3.125H37.658v27.35z" fill="#fff"/><path d="M27.593 45.01v2.423a15.75 15.75 0 0 0 4.636 10.153c2.037 2.038 6.147 4.638 10.148 4.638h2.74a16.8 16.8 0 0 0 5.629-1.636 15.88 15.88 0 0 0 4.2-3.066c2.663-2.67 4.285-6.202 4.573-9.96v-2.23c0-4.214-2.532-8.24-4.668-10.376-1.272-1.3-2.762-2.345-4.4-3.118a15.9 15.9 0 0 0-5.969-1.551h-1.53c-5.838.243-11.088 3.625-13.723 8.84a15.77 15.77 0 0 0-1.637 5.885z"/><path d="M28.422 46.094c0 8.228 6.683 15.3 14.72 15.3h.255a15.09 15.09 0 0 0 15.23-14.408V45a14.04 14.04 0 0 0-1.572-5.5 15.16 15.16 0 0 0-3.032-4.107 14.87 14.87 0 0 0-10.052-4.229h-1.147c-4.2 0-7.938 2.46-10.118 4.54a15.52 15.52 0 0 0-4.284 10.379zM14.083 21.93V65.1c0 .528 2.1 3.293 2.5 3.877.882 1.33 1.914 2.338 2.817 3.557.6.812 5.817 6.1 6.475 6.273V16.32c-.43.288-.758.67-1.184.983l-1.248.92c-.862.6-1.775 1.147-2.73 1.6a16.6 16.6 0 0 1-3.061 1.273l-1.68.486-1.9.35zM61.24 78.862a20.72 20.72 0 0 0 1.672-1.451l1.657-1.53a35.01 35.01 0 0 0 3.07-3.3l2.815-3.5c.382-.566 2.512-3.365 2.512-3.862V21.87c-1.9 0-5.227-1.37-6.564-2.04a25.99 25.99 0 0 1-2.677-1.594c-.42-.28-2.235-1.782-2.485-1.85z" fill="#fff"/><path d="M33.902 45.775v1.087a7.36 7.36 0 0 0 .66 2.593l1.2 2.125c.485-.04 1.07-.85 1.466-.956-.164-.614-1.312-1.64-1.338-2.805h3.82v5.483h1.8L41.36 37.3a9.25 9.25 0 0 0-2.91 1.041c-.838.466-1.594 1.067-2.236 1.78a9 9 0 0 0-2.313 5.655zm8.285-12.228v25.488h2.42c1.626 0 3.05-.8 4.316-1.1l-.683-1.573c-1.293.487-2.642.808-4.015.956h-.318V35.192h.32c.668.055 1.332.158 1.985.3a9.97 9.97 0 0 0 1.74.568l.672-1.58c-.383-.032-1.33-.518-1.917-.633a10.14 10.14 0 0 0-2.226-.387l-.7-.015zm-11.407 12.1v.5c0 4.138 1.32 6.137 3.084 8.517a12.87 12.87 0 0 0 3.181 2.619 13.24 13.24 0 0 0 4.313 1.55v-1.787c-1.82 0-5.33-2.352-6.156-3.468a11.19 11.19 0 0 1-2.7-6.987v-.574a10.95 10.95 0 0 1 2.7-6.987c.925-1.243 4.242-3.436 6.156-3.6v-1.785a15.57 15.57 0 0 0-4.1 1.508 13.16 13.16 0 0 0-3.176 2.5 15.14 15.14 0 0 0-2.219 3.39 13.46 13.46 0 0 0-1.083 4.594zm19.18 11.726a15.38 15.38 0 0 0 3.042-2.439c.377-.45 2.183-2.83 2.183-3.362 0-.258-1.274-.693-1.53-.83a8.61 8.61 0 0 1-1.975 2.933v-14.85c.478.128 1.835 2.458 1.986 3.085l1.583-.662c-.072-.864-1.623-2.942-2.15-3.523-.922-1.007-1.978-1.882-3.14-2.6z"/><path d="M35.623 45.456v.638h4.015V39.72c-1.648.383-4.015 3.622-4.015 5.737z" fill="#fff"/></svg>