<?xml version="1.0" encoding="UTF-8"?>
<!DOCTYPE svg PUBLIC "-//W3C//DTD SVG 1.1//EN" "http://www.w3.org/Graphics/SVG/1.1/DTD/svg11.dtd">
<!-- Creator: CorelDRAW X5 -->
<svg xmlns="http://www.w3.org/2000/svg" xml:space="preserve" width="250mm" height="400mm" style="shape-rendering:geometricPrecision; text-rendering:geometricPrecision; image-rendering:optimizeQuality; fill-rule:evenodd; clip-rule:evenodd"
viewBox="0 0 25000 40000"
 xmlns:xlink="http://www.w3.org/1999/xlink">
 <defs>
  <style type="text/css">
   <![CDATA[
    .str0 {stroke:black;stroke-width:300}
    .str1 {stroke:#F1D67F;stroke-width:500}
    .str2 {stroke:red;stroke-width:500}
    .fil5 {fill:none}
    .fil0 {fill:#F1D67F}
    .fil2 {fill:red}
    .fil3 {fill:white}
    .fil1 {fill:#373435;fill-rule:nonzero}
    .fil4 {fill:red;fill-rule:nonzero}
   ]]>
  </style>
 </defs>
 <g id="Capa_x0020_1">
  <metadata id="CorelCorpID_0Corel-Layer"/>
  <g id="_229260528">
   <g>
    <polygon class="fil0 str0" points="12500,744 13681,4512 17524,4504 14410,6825 15605,10588 12500,8255 9395,10588 10590,6825 7476,4504 11319,4512 "/>
    <path class="fil1" d="M12107 7042l-342 0 0 -1288c-125,117 -272,203 -441,259l0 -310c89,-29 186,-84 291,-166 105,-82 176,-177 215,-286l277 0 0 1791zm1248 0l-342 0 0 -1288c-125,117 -272,203 -441,259l0 -310c89,-29 186,-84 291,-166 105,-82 176,-177 215,-286l277 0 0 1791z"/>
   </g>
   <path class="fil2 str1" d="M23366 12727l-10866 0 -10866 0 0 20331c0,5394 7914,1330 10866,6198 2952,-4868 10866,-804 10866,-6198l0 -20331z"/>
   <rect class="fil3" x="2767" y="13949" width="19650" height="4833"/>
   <path class="fil4" d="M3836 18099l0 -3247 2212 0 0 383 -1807 0 0 994 1693 0 0 381 -1693 0 0 1105 1879 0 0 383 -2283 0zm2901 0l0 -454 428 0 0 454 -428 0zm3707 0l0 -297c-140,234 -347,350 -620,350 -177,0 -339,-51 -487,-155 -148,-103 -263,-247 -345,-433 -81,-185 -122,-398 -122,-639 0,-234 37,-448 110,-639 74,-191 185,-338 332,-439 147,-102 313,-153 495,-153 133,0 252,30 356,90 105,60 190,138 255,234l0 -1165 373 0 0 3247 -348 0zm-1188 -1174c0,302 60,527 180,676 120,149 261,224 424,224 164,0 304,-72 418,-214 115,-142 172,-360 172,-653 0,-322 -58,-558 -175,-708 -117,-151 -261,-226 -432,-226 -167,0 -306,73 -418,217 -112,144 -168,373 -168,684zm3644 417l388 51c-61,241 -175,428 -340,561 -166,132 -378,199 -635,199 -324,0 -581,-106 -771,-318 -190,-212 -285,-509 -285,-891 0,-396 96,-703 288,-922 192,-219 441,-328 747,-328 296,0 539,107 726,321 188,214 282,516 282,904 0,24 -1,60 -2,107l-1653 0c14,259 83,457 207,594 124,138 278,206 463,206 138,0 255,-39 353,-116 98,-76 175,-199 232,-367zm-1233 -645l1237 0c-16,-197 -64,-346 -142,-445 -120,-153 -275,-231 -465,-231 -172,0 -318,61 -435,184 -118,122 -182,287 -195,491zm3312 1403l0 -3247 405 0 0 2864 1507 0 0 383 -1912 0zm2453 0l0 -454 428 0 0 454 -428 0zm1129 0l0 -3247 1154 0c203,0 358,11 465,31 150,26 276,77 378,152 101,74 183,179 245,313 62,135 93,282 93,443 0,276 -83,510 -248,702 -166,191 -465,287 -898,287l-785 0 0 1320 -405 0zm405 -1703l792 0c261,0 447,-51 557,-155 110,-104 165,-249 165,-436 0,-136 -32,-253 -97,-349 -65,-97 -150,-160 -256,-191 -68,-19 -194,-29 -378,-29l-783 0 0 1161zm1954 1703l0 -454 428 0 0 454 -428 0z"/>
   <polygon class="fil3" points="5131,19741 8377,19741 8377,36462 5131,36022 "/>
   <polygon class="fil3" points="16773,19741 20018,19741 20018,35982 16773,36402 "/>
   <polygon class="fil3" points="10877,19741 14123,19741 14123,37342 12508,38782 10877,37342 "/>
   <path class="fil5 str2" d="M22822 13490l-10322 0 -10322 0 0 19314c0,5125 7518,1264 10322,5888 2804,-4625 10322,-764 10322,-5888l0 -19314z"/>
  </g>
 </g>
</svg>
