<?xml version="1.0" encoding="utf-8"?>
<!-- Generator: Adobe Illustrator 13.0.2, SVG Export Plug-In . SVG Version: 6.00 Build 14948)  -->
<!DOCTYPE svg PUBLIC "-//W3C//DTD SVG 1.0//EN" "http://www.w3.org/TR/2001/REC-SVG-20010904/DTD/svg10.dtd">
<svg version="1.0" id="Ebene_1" xmlns="http://www.w3.org/2000/svg" xmlns:xlink="http://www.w3.org/1999/xlink" x="0px" y="0px"
	 width="508.083px" height="527.241px" viewBox="0 0 508.083 527.241" enable-background="new 0 0 508.083 527.241"
	 xml:space="preserve">
<path fill-rule="evenodd" clip-rule="evenodd" d="M324.01,484.474l13.685-10.605l13.345-10.945l12.659-11.291l12.316-11.637
	l11.634-12.316l11.291-12.316l10.605-13.002l9.923-13.002l9.58-13.682l8.895-14.033l8.555-14.027l7.869-14.713l7.526-14.707
	l6.844-15.059l6.158-15.393l5.815-15.398l5.133-16.081l4.79-16.081l4.107-16.081l3.419-16.764l3.079-16.767l2.396-16.764
	l2.054-17.108l1.368-17.449l1.025-17.108v-17.791V86.562l-1.711-36.951h-24.633c-15.056-2.054-28.058-10.95-39.349-20.871
	c-4.447-3.763-8.552-7.869-12.316-12.659L417.415,0c-10.948,8.553-21.554,17.449-33.188,24.977c-8.555,5.474-17.449,9.921-27.029,13
	l-4.79,1.37c-11.291,2.394-22.239,3.079-33.873,1.025c-4.447-0.684-8.209-1.711-12.316-3.079
	c-14.027-5.474-26.004-14.713-37.978-23.266L253.871,3.42l-16.424,11.975c-11.632,8.896-23.607,17.449-37.635,22.582l-3.763,1.027
	c-11.975,3.079-23.609,3.422-35.927,1.368c-3.079-0.684-6.158-1.368-9.237-2.395c-12.659-4.106-23.95-10.264-34.898-18.133
	C107.433,13.343,98.878,6.5,90.668,0c-5.133,6.842-10.264,13.685-16.081,20.187c-11.291,11.975-25.32,23.265-41.399,28.055
	c-3.079,0.684-5.817,1.37-8.896,1.37H1.711L0,86.562v17.792v17.791l1.025,17.108l1.368,17.449l2.054,17.108l2.395,16.764
	l3.079,16.767l3.422,16.764l4.104,16.081l4.792,16.081l5.131,16.081l5.817,15.398l6.158,15.393l6.842,15.059l7.528,14.707
	l7.869,14.713l8.553,14.027l8.897,14.033l9.579,13.682l9.923,13.002l10.605,13.002l11.291,12.316l11.634,12.316l12.316,11.637
	l12.659,11.291l13.343,10.945l13.688,10.605l14.369,9.926l15.056,9.58l15.053,9.234l25.32,14.027l25.661-14.027l15.053-9.234
	l15.056-9.58L324.01,484.474L324.01,484.474z"/>
<path fill-rule="evenodd" clip-rule="evenodd" fill="#FFFFFF" d="M253.871,514.61l20.528-11.291l15.053-8.895l14.37-9.24l14.03-9.92
	l13.685-10.266l12.659-10.605l12.659-11.291l11.977-11.291l11.291-11.977l10.948-12.316l10.263-12.316l9.923-13.002l9.237-13.342
	l8.897-13.342l8.212-14.033l7.869-14.027l7.184-14.713l6.844-14.707l6.158-15.059l5.473-15.053l5.133-15.397l4.447-15.738
	l4.107-16.081l3.422-16.08l3.079-16.424l2.394-16.765l1.711-16.765l1.368-16.765l1.028-17.106l0.34-17.449l-0.34-17.449
	l-1.368-27.029c-6.158,0-12.319,0.341-18.478-0.343c-3.079-0.684-5.815-1.368-8.895-2.395c-5.818-2.052-11.291-4.79-16.767-8.212
	c-10.605-6.842-20.528-15.396-29.08-24.976c-2.739-3.079-5.133-6.501-7.529-9.58c-5.133,4.106-10.605,8.21-15.738,12.316
	c-10.263,7.528-20.871,13.686-32.502,18.476c-2.396,1.027-5.133,1.711-7.529,2.738c-11.631,3.42-23.265,4.447-35.581,3.763
	c-5.818-0.684-11.291-1.711-17.109-3.422c-3.079-1.027-6.158-2.052-8.895-3.422c-16.081-7.184-30.108-18.475-44.479-28.739
	c-12.659,9.579-25.661,19.501-39.69,26.687c-5.815,3.079-11.632,5.133-17.791,6.844l-5.133,1.025
	c-10.948,1.711-21.554,1.37-32.845-0.343c-6.844-1.368-13.345-3.42-20.187-6.158c-8.553-3.42-16.422-7.868-23.95-13
	c-7.526-5.476-14.711-10.948-21.896-16.765c-2.738,3.42-5.133,7.185-8.212,10.264C71.508,37.662,56.452,49.637,39.003,56.138
	c-3.079,1.027-5.815,1.711-8.895,2.395c-6.158,0.684-12.318,0.343-18.476,0.343l-1.368,27.029l-0.343,17.449l0.343,17.449
	l1.025,17.106l1.368,16.765l1.711,16.765l2.395,16.765l3.079,16.424l3.422,16.08l4.106,16.081l4.447,15.738l5.133,15.397
	l5.474,15.053l6.16,15.059l6.842,14.707l7.185,14.713l7.869,14.027l8.212,14.033l8.553,13.342l9.58,13.342l9.923,13.002
	l10.264,12.316l10.948,12.316l11.291,11.977l11.975,11.291l12.659,11.291l12.659,10.605l13.686,10.266l14.027,9.92l14.37,9.24
	l15.054,8.895L253.871,514.61L253.871,514.61z"/>
<path fill-rule="evenodd" clip-rule="evenodd" d="M76.639,74.271c6.158,0,10.948,4.79,10.948,10.607
	c0,6.158-4.79,10.948-10.948,10.948c-5.815,0-10.605-4.79-10.605-10.948C66.034,79.061,70.824,74.271,76.639,74.271L76.639,74.271z
	 M181.336,171.783c6.158,0,10.948,5.133,10.948,10.948c0,5.817-4.79,10.607-10.948,10.607c-5.817,0-10.607-4.79-10.607-10.607
	C170.729,176.916,175.519,171.783,181.336,171.783L181.336,171.783z M300.743,274.083c5.818,0,10.608,5.133,10.608,10.951
	c0,5.813-4.79,10.605-10.608,10.605c-5.815,0-10.948-4.793-10.948-10.605C289.794,279.216,294.927,274.083,300.743,274.083
	L300.743,274.083z M378.751,353.46c5.818,0,10.608,4.793,10.608,10.951c0,5.813-4.79,10.605-10.608,10.605
	c-5.815,0-10.948-4.793-10.948-10.605C367.803,358.253,372.936,353.46,378.751,353.46L378.751,353.46z M153.28,122.857
	c1.027,5.815,7.528,7.526,13.345,7.526c3.079,0,3.762-2.054,3.079-6.158c-3.079-19.503-8.212-39.69-34.9-41.058
	c-26.002-1.711-39.688,17.792-42.425,42.769c-3.079,33.872,12.659,54.059,37.636,56.795c28.397,3.422,35.24-21.555,39.346-33.53
	c2.736-7.869-15.054-7.526-15.738,2.054c-0.686,12.316,2.736,18.476-9.582,18.817c-14.026,0.341-15.738-18.476-15.738-37.293
	c0-14.027-1.368-27.371,8.553-29.424C148.148,101.302,151.228,111.223,153.28,122.857L153.28,122.857z M261.74,197.785
	c-12.659-11.632-26.345-22.239-38.663-34.214c-4.104-4.104-6.842-4.79-10.264-1.368c-2.052,2.736-2.395,5.474-1.025,7.869
	c2.394,4.79,3.079,8.896,3.079,13.343l-18.817,40.031c-2.396,5.133-7.528,2.736-11.292,3.763c-2.052,2.396-2.052,4.79-0.341,7.185
	l10.607,10.264c1.368,1.711,4.447,2.396,6.842,0c1.027-1.027,1.027-2.736,0.684-4.106c-1.368-6.842,0-11.29,3.079-8.553
	l29.767,24.293c4.106,3.42,4.79,8.896,4.79,13.683c-0.341,4.107-0.684,4.453,2.052,7.529l24.976,24.633
	c2.739,2.742,6.844,2.396,8.897-1.711c1.711-3.762-0.686-7.184-2.739-13.002c-8.552-25.658-11.974-52.346-11.974-77.322
	c2.396-0.684,3.422-1.711,3.422-3.422C265.504,202.918,264.476,200.18,261.74,197.785L261.74,197.785z M223.762,185.126
	l-15.397,32.846l25.318,20.187l-3.079-43.453C230.262,190.6,226.841,186.837,223.762,185.126L223.762,185.126z M355.144,276.819
	l-29.083-21.896c-3.079-2.736-6.498-2.736-8.552-1.027c-2.736,2.396-1.711,5.817,0.343,8.212c2.051,2.396,3.079,7.528,2.736,10.61
	v60.557c0,3.762-0.686,7.869-3.079,8.209c-4.104,0.346-5.815-0.34-6.501,2.396c-0.683,2.057-0.683,4.447,2.396,6.844l33.53,26.689
	c2.736,2.051,6.158,1.711,8.552,0c1.711-1.025,0.343-4.107-0.686-5.818c-3.079-3.762-4.447-6.498-4.447-9.92v-69.457
	c0-4.793,6.844-5.473,7.526-9.24C358.566,279.901,357.541,278.53,355.144,276.819L355.144,276.819z"/>
<path fill-rule="evenodd" clip-rule="evenodd" fill="#E2001A" d="M253.871,502.979c38.66-20.186,72.533-44.824,101.616-72.533
	L20.528,119.434C25.318,282.638,104.353,424.282,253.871,502.979L253.871,502.979z M437.943,319.933
	c37.978-73.904,54.401-159.784,48.926-250.793c-37.978,1.711-72.876-41.399-72.876-41.399
	c-20.528,16.422-46.529,33.188-81.088,33.188c-34.556,0.341-54.741-15.738-79.034-33.188c-23.95,17.449-44.137,33.529-78.694,33.188
	c-6.158,0-11.975-0.341-17.791-1.37L437.943,319.933L437.943,319.933z"/>
</svg>
