<?xml version="1.0" encoding="utf-8"?>
<!-- Generator: Adobe Illustrator 22.1.0, SVG Export Plug-In . SVG Version: 6.00 Build 0)  -->
<svg version="1.1" id="Layer_1" xmlns="http://www.w3.org/2000/svg" xmlns:xlink="http://www.w3.org/1999/xlink" x="0px" y="0px"
	 viewBox="0 0 224 224" style="enable-background:new 0 0 224 224;" xml:space="preserve">
<style type="text/css">
	.st0{fill:#2F2F8C;}
	.st1{fill:#332E7E;}
	.st2{fill:#352F7F;}
	.st3{fill:#322C80;}
	.st4{fill:#353296;}
	.st5{fill:#353388;}
	.st6{fill:#4E4E9A;}
	.st7{fill:#3F3F8A;}
	.st8{fill:#343384;}
	.st9{fill:#EFF0F7;}
	.st10{fill:#DFE1EC;}
	.st11{fill:#2A2A6E;}
	.st12{fill:#E1E3EA;}
	.st13{fill:#393874;}
	.st14{fill:#F3C413;}
	.st15{fill:#F4C513;}
	.st16{fill:#F4C515;}
	.st17{fill:#EDC11C;}
	.st18{fill:#EFC319;}
	.st19{fill:#EFC21B;}
	.st20{fill:#EDC11B;}
	.st21{fill:#EEC21C;}
	.st22{fill:#EBC01E;}
	.st23{fill:#363076;}
	.st24{fill:#E7BE24;}
	.st25{fill:#EBBF2A;}
	.st26{fill:#F1C31A;}
	.st27{fill:#D9B839;}
	.st28{fill:#D0B242;}
	.st29{fill:#E9EBF5;}
	.st30{fill:#EBBF19;}
	.st31{fill:#30318D;}
	.st32{fill:#323389;}
	.st33{fill:#383381;}
	.st34{fill:#353184;}
	.st35{fill:#373487;}
	.st36{fill:#323086;}
	.st37{fill:#2E256F;}
	.st38{fill:#2F2B7D;}
	.st39{fill:#44386C;}
	.st40{fill:#42366A;}
	.st41{fill:#594F72;}
	.st42{fill:#433168;}
	.st43{fill:#32328E;}
	.st44{fill:#EFC017;}
	.st45{fill:#F4C416;}
	.st46{fill:#F5C312;}
	.st47{fill:#F2C316;}
	.st48{fill:#EDC219;}
	.st49{fill:#F1C41E;}
	.st50{fill:#F0C31C;}
	.st51{fill:#EBC31E;}
	.st52{fill:#ECC21F;}
	.st53{fill:#36307D;}
	.st54{fill:#483D72;}
</style>
<g>
	<path class="st0" d="M183.1,21.8c3,4,2,8.6,2,13c0,2.7,0.4,4.8,2.9,6.2c2.5,1.6,4.2,3.7,4.5,6.8c-1.8,3.3,2.8,4.7,2.3,7.7
		c-0.5,3.2-1.3,6.4-2,9.6c-0.4,1.9-1.1,3.8,0.5,5.5c0.6,0.4,1,0.9,1.4,1.4c-0.5,2.1-2.2,3.4-3.7,4.5c-3.6,2.7-3.6,5-0.1,7.5
		c0.2,0.1,0.4,0.2,0.6,0.4c0.9,2.4,2.5,3.2,5,2.3c1,0.5,1.2,1.4,1.2,2.4c-1.7,5.3-4.3,10.3-5.1,15.9c-0.3,1.9-1.7,4.2,0.9,5.7
		c0.6,0.4,1,1,0.5,1.7c-1.1,1.2-2.1,2.6-3.4,3.5c-3.4,2.3-2.9,4.5-0.5,7.1c2.1,1,2.1,5.6,6,3.6c0.7,0.2,1.1,0.8,1.4,1.5
		c0.4,3.6-2.5,6-3.4,9.1c-1,3.3-2,6.6-2.6,10.1c-0.2,1.1-0.2,2,1.2,2.1c1,0.2,1.6,0.7,1.9,1.6c-1.2,2.2-3.3,3.6-5,5.2
		c-2.4,2.3-2.6,4,0.8,5.2c1,0.2,1.2,1.1,1.5,1.9c0.6,1.8,0.6,3.8,2.5,4.8c1.5,2.6-1,4.9-0.6,7.5c-0.9,4.9-2.6,9.7-2.6,14.8
		c0.2,1.3,0.4,2.6-0.4,3.7c-1.5,1.6-2.7,4.6-5.8,0.7c0,3.1,0.1,5.7,0,8.2c-0.3,4.8-2.9,7.8-7.5,8.8c-4.5,1-8.1-0.7-10.5-4.9
		c-4.3-7.7-4.3-7.6-12-2.6c-38.9,24.9-91.9,13.9-116.1-25.5c-9.4-15.3-14.3-32.1-15.9-49.9c0.4-8,0.4-15.9,0-23.9
		C26,74.5,35.7,46.7,60.9,27.7c25.6-19.3,53.9-23.8,83.9-9.4c5.5,2.7,11.1,5.2,16.7,7.9c2.9,1.4,5.2,2,5.9-2.5
		c0.2-1.5,0.7-3.4,2.6-3.9c1.2,1.1,3.6-0.4,4.3,1.9c-0.1,0.5-0.3,0.9-0.5,1.3c-1.9,2.3-2,5.3-3.5,7.8c-3.3,4.4-7.4,2.8-11.3,1.1
		c-8.2-3.6-16.4-7.5-24.4-11.6c-8.7-4.4-17.7-5.5-27.2-4.8c-40.5,3-64.1,30.4-74.1,64.3c-7.7,25.8-7.5,52.1,1.5,77.7
		c10.9,31.1,35.5,52.5,70.5,54.4c18.6,1,35.2-3.7,50.4-14.3c3.4-2.4,7-4,11.1-1.6c3,2.4,3.3,6.4,5.7,9.2c0.6,0.5,1.1,0.8,1.8,1.1
		c2.5,0.6,3.7-1,4.6-2.8c0.5-1,0.7-2.2,0.8-3.4c1.4-15.6,1-31.2,0.2-46.8c-0.1-1.5-0.5-3-1.2-4.3c-1.7-3.1-5.7-3.3-7.8-0.4
		c-0.7,1-1.1,2.1-1.3,3.2c-2.5,10.9-7.9,20.4-14.2,29.5c-12.5,13.3-27.8,19-45.9,17c-12.5-1.4-21.8-8.5-30-17.4
		c-4.9-5.3-8.5-11.6-11.3-18.1c-8.2-18.8-11.4-38.4-9.1-59c1.5-13.1,3.6-26.1,8.8-38.3C73.7,52,82.1,41,95.5,34.3
		c24.8-12.4,59.2,0,70.2,25.5c1.8,4.1,3.5,8.3,4.4,12.7c0.1,2.7,0.7,5.3,1.6,7.8c2.9,4.5,4.2,4.3,7.7-0.8c0.4-15.2,0-30.4,0.1-45.6
		c0.3-3-1-5.9-0.8-8.9C178.8,22.1,180.6,21.6,183.1,21.8z"/>
	<path class="st1" d="M191,194.1c-0.3-1.1-0.6-2.2-0.9-3.4c6-6.6,9.3-14.3,9.5-23.6c-3.2,2.2-2.7,6.8-6.5,8
		c-1.2-2.6,2.2-4.6,0.9-7.2c-1.3-1.7,0.3-2.8,0.9-4.2c0.5-0.7,1.1-1.4,2-1.6c2.1-1,2.8-3.7,5.1-4.4
		C205.5,172.8,202.3,184.9,191,194.1z"/>
	<path class="st1" d="M194.8,72c-0.7-0.1-1.4-0.1-2.1-0.2c-0.3-2.2,1.3-3.6,2.2-5.4c2.7-5.3,5.7-10.5,4.7-17.1
		c-2.6,1.4-2.3,5.4-5.5,5.9c0-1.7-1.6-1.9-2.3-2.8c-1.1-1.3-2.2-3.1,0-4.5c3.2,0.9,3-2.4,4.6-3.6c0.2-0.1,0.4-0.2,0.6-0.4
		c1.7-1.4,3.3-2.8,5.5-4.6C204,51.7,204.4,63,194.8,72z"/>
	<path class="st2" d="M197.2,128.3c-0.5-0.5-1.1-1-1.6-1.5c-0.6-2.8,1.3-3.9,3.3-4.9c1.3-0.9,1.9-2.7,4-3.2c2.2,12,0.4,22.9-8,32.2
		c-0.7-0.4-1.4-0.7-2.1-1.1c-0.2-2.9,2.2-4.7,3.3-7c2.6-5.5,4.2-11.1,3.9-16.1C199.9,127.4,198.9,128.3,197.2,128.3z"/>
	<path class="st3" d="M197,88.9c0-0.8-0.2-1.6-1.1-1.9c-0.6-2,0.7-3,2-4c1.6-1.1,2-3.5,4.6-4c2,12.4,1.6,24.1-8.3,33.4
		c-0.4-0.5-0.9-0.9-1.3-1.4c-0.4-2.2,1.2-3.6,2.2-5.3c2.7-4.6,4.3-9.5,4.8-14.9C200.2,87.2,198.3,89,197,88.9z"/>
	<path class="st4" d="M174,21.7c-0.8-1.8-3.9,1.3-4.1-1.9c0.6-0.9,1.2-1.9,2.6-1.9c3.6-1.2,6.7,0,9.5,2.1c0.3,0.6,0.7,1.2,1,1.7
		c0.5,3.3-3-0.6-3,1.7C177.5,24.7,175.7,23.3,174,21.7z"/>
	<path class="st5" d="M196.9,162.1c-0.4,0.7-0.7,1.4-1.1,2.1c-1.9,0.9-3.6,0.9-4.8-1.1c-0.1-0.6-0.3-1.2-0.4-1.8
		c-0.5-2.5,0.8-3.7,3.1-3.6C196.7,157.8,197,159.9,196.9,162.1z"/>
	<path class="st6" d="M190.8,123c0.2-1.9,0-4.1,2.4-4.8c1.8-0.5,3.2,0.2,4.1,1.8c0.7,2.2-0.1,3.9-2,4.9
		C193.2,126,191.9,124.5,190.8,123z"/>
	<path class="st7" d="M191.1,84c-0.3-2.4-1.3-5.4,2.4-5.7c3-0.3,3.7,2.1,3.5,4.7c-1.5,3.3-3.5,3.4-6,1L191.1,84z"/>
	<path class="st8" d="M190.9,40c4.8-2.1,5.6-1.5,6.1,4.1c0,0,0.1-0.1,0.1-0.1c-1.3,1.9-3,2.7-5.1,1.3C190,43.9,189.8,42,190.9,40z"
		/>
	<path class="st9" d="M190.9,40c0.2,5.4,0.9,5.9,6.2,4c0.2,2-1.3,3.2-2.1,4.7c-1.7,3.1-2.4,1.1-3.1-0.7c-1.3-2.3-2.6-4.6-3.8-7
		C188.9,40.7,189.9,40.3,190.9,40z"/>
	<path class="st10" d="M190.8,123c4.7,2.5,5.7,2,6.4-3c0.5,0.6,1,1.3,1.6,1.9c-0.6,2-3,2.8-3.3,4.9c-1.5,1.8-2.9,4-3.8-0.4
		c-0.2-1.2-1-2.4-1.4-3.5C190.5,122.9,190.7,122.9,190.8,123z"/>
	<path class="st11" d="M23.3,105c1.2,8,1.2,15.9,0,23.9C22.8,121,22.7,113,23.3,105z"/>
	<path class="st12" d="M190.9,84c2.2,0.7,4.2,0.9,6-1c0.3,0,0.6,0,1,0c-0.7,1.3-1.3,2.7-2,4c-0.8,0.8-1.5,1.6-2.7,2.8
		C192.4,87.7,191.7,85.8,190.9,84z"/>
	<path class="st13" d="M182,20c-3.1-0.9-6.1-2.7-9.5-2.1C176.2,16.4,179.6,16.2,182,20z"/>
	<path class="st14" d="M67.4,87.1C69.5,75,74,63.8,81,53.7c10.2-14.7,24.5-20.5,42-18.5c18.3,2.1,31.5,11.6,38.8,28.8
		c1.6,3.8,2.8,7.8,3.4,12c0,2.3,1.8,5-1.2,6.8c-0.6-0.6-1.3-1.2-1.9-1.7c-0.5-0.3-1.3-0.1-1.2,0.2c0.7,6.3-3.4,6.4-7.8,6
		c-12.7-2.9-24.9-6.9-35.6-14.6c-1.6-1.2-3.1-1.9-4.9-0.6C99.9,80.7,86,85.6,71,87.8c-0.7,0.1-1.2,0.5-1.9,0.6
		C68.2,88.4,67.6,87.9,67.4,87.1z"/>
	<path class="st15" d="M67.4,87.1c0.5,0.3,1.1,0.6,1.6,0.9c4.7,0.1,5.3,4.2,7,7.2c1,1.7,1.4,3.7,1.4,5.7c0.1,16,0.2,31.9,0,47.9
		c-0.1,6,1.5,11.1,5.5,15.5c3.5,3.5,7.5,6.3,12.2,8c2.8,1.2,5.3,3,8.4,3.6c4.9,0.1,7.8,7,13.1,4.3c4.3-2.2,8.7-3.9,13-6.1
		c2.2-0.6,4.2-1.7,6.2-2.8c2-1,4.1-1.9,6-3.2c4.2-2.7,7.6-5.9,8.3-11.1c2.9-15.1,1.1-30.3,1.5-45.5c0.1-4.1,0-8.3,0.2-12.4
		c0.6-3.8,2.2-7.1,5-9.8c2.7-1.6,4.3-0.4,4.4,2.3c0.2,4.3,1.7,8.5,1.7,12.8c1.9,5.3,5.9,8.9,9.9,12.7c1.1,1,3.9,1.6,1.3,4
		c-0.5,0.5-1.2,0.6-1.9,0.5c-2.6-1.7-5-2.9-6.2,1.4c-0.2,0.4-0.5,0.7-0.9,1c-1.8-1.3-2-4.2-5.1-4.8c-1.5,8.7-1.7,17.2,2.9,25.1
		c1.7,3,1.9,5.7,1,8.9c-3.1,11.3-8.5,21.2-17.3,29c-20.7,18.2-49.4,14.3-65.9-9c-10.2-14.5-15.4-30.9-16.4-48.5
		C63.5,112.1,63.6,99.4,67.4,87.1z"/>
	<path class="st16" d="M166.9,197c-4.2-2.9-7.6-0.4-10.9,1.9c-7.7,5.3-16,9.9-25.1,12c-36.2,8.6-75-4.3-92.1-41.5
		C19,125.8,21.9,83,50.4,43.9c18.9-26,52.3-35.3,80.1-26.8c10,3,19.1,8.8,28.6,13.2c3.5,1.7,7.2,3.3,10.5-0.4
		c1.2-0.9,1.9-3.7,3.9-0.8c0.2,0.5,0.2,1,0.2,1.6c-2.7,5.6-7.6,7.7-13.6,5.8c-4.3-1.4-8.2-3.7-12.1-5.9c-8.2-4.5-16.4-8.9-25.9-10.2
		c-14.6-2.1-28.5,0.4-41.8,6.5c-20.5,9.4-33.4,25.7-40.6,46.4c-10.9,31.6-11.4,63.4,3.7,93.8c12.3,24.7,32.9,38.4,60.9,40.7
		c18.4,1.6,34.3-4.1,49.4-13.8c9.6-6.2,17.6-3.5,20.1,6.5c-1.1,3.5-2.5,3.5-4.1,0.3C169,199.4,168.6,197.8,166.9,197z"/>
	<path class="st16" d="M180,82.1c-5.1,4.4-6.6,4.3-9.1-0.7c-0.7-2.8-0.3-5.7-1.7-8.3c-2.6-7.4-4.7-14.9-9.6-21.3
		C136,20.8,91.5,24.3,72.8,58.6c-8,14.8-11.1,30.9-12.5,47.4c-1.9,22.6,2.1,44.1,13.3,64c12.1,21.5,33.1,31.5,54.8,26.2
		c9.5-2.3,17.6-7.3,24.5-14.2c0.6-0.6,1-1.2,1.9-1.1c1.2-0.6,2.1-0.4,2.7,0.9c-1.6,5.7-6.2,9-10.6,12c-19.5,13.6-51,12.2-68.4-8.5
		c-15.8-18.8-22.6-40.4-23.7-64.3c-0.9-18.7,1.9-36.9,8.9-54.3C69.9,51,78.8,37.2,95,30.1c29.5-12.9,70.3,1.3,78.2,40.3
		c0.3,2.8-0.6,5.9,1.4,8.4c0.4,0.3,0.7,0.6,1.2,0.8c2.9-0.9,1.7-3.3,1.8-5c0.1-11.5,0-22.9,0.1-34.4c0-2.1-0.3-4.3,0.7-6.4
		c0.6-0.7,1.2-1.6,2.1-0.3c0.1,15.2,0,30.4,0.1,45.6C180.5,80.2,180.6,81.2,180,82.1z"/>
	<path class="st17" d="M157.1,182.1c-0.5-0.9-1.4-1.1-2.3-1.2c6.5-10.4,12.1-21.2,15.1-33.2c0.6-2.3,2.8-3,5.2-3.1
		c2.4,0,4.1,0.9,5.3,3c1.2,2,1.3,4.2,1.3,6.3c0,15.6,0.1,31.2-0.2,46.8c-0.1,6.3-2.8,8.1-8.4,6.4c1.9-0.8,1.6-2.6,2.1-4.1
		c1.2-11.3,0.3-22.6,0.5-33.9c0.1-5.6,0.3-11.2-0.7-16.8c-2.6,5.3-4.3,10.8-6.7,16.1c-1.7,3.8-3.9,7.4-6.4,10.7
		C160.7,180.6,159.5,182.4,157.1,182.1z"/>
	<path class="st18" d="M181,115.6c-6.1-4.6-10-18.6-7.8-24.7c1.2-3.3,4.3-1.6,6.5-2.3c1.9-0.6,1.3,1.8,1.3,2.9
		C181,99.1,181,106.9,181,115.6z"/>
	<path class="st19" d="M180.6,142.1c-2.5-2.2-6.5,0-7.7-3.1c-1.8-4.7-0.8-9.5,1.6-13.9c1.3-2.4,2.9-4.7,6.1-6.3
		C180.6,126.6,180.6,133.9,180.6,142.1z"/>
	<path class="st17" d="M193.1,175.1c2.3-3.6,3.5-7.8,6.7-10.9c3.2,8-2.3,22.9-9.6,26.5C190,185.3,192,180.3,193.1,175.1z"/>
	<path class="st20" d="M197.2,128.3c1-1.1,1.9-2.1,3.5-3.9c1.3,10.4-2.3,18.3-7.9,25.4c-1.2,0.4-3,2.9-2.6-1
		C191.1,141.5,193.5,134.7,197.2,128.3z"/>
	<path class="st19" d="M197,88.9c1.5-0.7,1.4-3,3.7-3.2c1.6,9.8-2.1,17.8-7.8,25.2c-2.9,1.4-2.1-0.9-2-2.2
		C191.3,101.7,193.9,95.2,197,88.9z"/>
	<path class="st21" d="M194.1,55.3c2.3-2.8,2.9-6.9,6.6-9.5c1.6,10.4-2.4,18.5-8,26c-2.3,0.2-1.7-1.4-1.7-2.7
		C191.2,64.3,192.7,59.8,194.1,55.3z"/>
	<path class="st22" d="M164.9,89.2c2.9,7.1,5.8,14.3,8,22.5c-4.1-1.7-5.3-5.4-7.8-7.7c-4.2-4.2-4-9.6-4.1-14.9
		c0-1.2,0.5-2.4,1.9-2.4C164.6,86.6,164.3,88.3,164.9,89.2z"/>
	<path class="st23" d="M164.9,89.2c-0.8-0.4-1-2-2.1-1.7c-1,0.3-0.6,1.4-0.6,2.1c-0.1,5,1.4,9.7,3,14.3c-0.8-0.1-1.8-0.9-2.4,0.4
		c-2.7-3.9-2.8-8.4-3-12.9c-0.1-2.5-0.8-3.1-2.8-1.4c-1.2-1.4-3.8-1.5-4-4c4,0.4,7.7,0.7,7.2-5.5c-0.2-2.2,1.4-1.2,1.9,0.4
		c-2,2-0.8,3.7,1,4.4C165.2,86.2,164.9,87.6,164.9,89.2z"/>
	<path class="st24" d="M163.3,127.5c1.9,3.8,3.8,7.6,5.7,11.4c1.2,2.5,0.1,4.6-2,5.3c-1.9,0.7-2.3-1.8-2.9-3.1
		c-2-4.2-2.2-8.7-2-13.2C162.5,127.7,162.9,127.6,163.3,127.5z"/>
	<path class="st25" d="M180,82.1c0-16.4,0-32.7,0-49.1c0.3-0.3,0.6-0.3,1,0c0.1,15.4,0.2,30.7,0.2,46.1
		C181.2,80.2,181.3,81.4,180,82.1z"/>
	<path class="st26" d="M180.9,33l-0.5,0c0,0-0.5,0-0.5,0c-0.3,0.3-0.7,0.7-1,1c-3.7-0.9-1.3-4.5-2.8-6.4c-1.7,0.2-1.3,2.8-3.1,2.6
		c0-0.4-0.1-0.9-0.1-1.3c-2.3-2.3-1.1-4.6,0-6.9c0.3-0.2,0.7-0.3,1-0.5c1.9,0.8,4.6-0.7,6,1.8C179.5,26.7,181.7,29.7,180.9,33z"/>
	<path class="st27" d="M165,123.9c0.1-0.4,0.1-0.8,0.2-1.2c2.5,0.5,4.8,0,6.8-1.7c0.7,0,1.4-0.1,2.1-0.1c-1.9,2.9-3.7,5.7-4,10.1
		C167.9,128.3,165.6,126.7,165,123.9z"/>
	<path class="st28" d="M163.9,82.7c1.8-2,0.6-4.6,1.2-6.8c1.5,3.8,1.2,8.3,4.9,11.2c0.6,0.5,0.8,1.5-0.1,2.1c-0.9,0.6-1.5-0.1-2-0.8
		C166.6,86.6,165.3,84.6,163.9,82.7z"/>
	<path class="st17" d="M166.9,197c2.6,0.1,2.7,2.5,3.6,4.1c1.1,2,1.8,1.3,2.5-0.1c1.4-0.1,1.5,0.8,1.5,1.8c-0.6,1.3-1.2,2.7-2.6,3.4
		C169.3,203.6,169.1,199.8,166.9,197z"/>
	<path class="st29" d="M191.1,163.1c1.6,0.4,3.2,0.7,4.8,1.1c-0.6,1.2-1.2,2.4-1.9,3.6C190.4,167.9,192.1,164.7,191.1,163.1z"/>
	<path class="st16" d="M171.9,206.1c0.1-1.4,0.7-2.5,2-3.1c0.6,0.1,1,0.5,1.1,1.1c2.9,3.5-0.1,2.9-2.1,3
		C172.6,206.7,172.3,206.4,171.9,206.1z"/>
	<path class="st30" d="M173,22.1c-0.1,2.3-1.2,4.6,0,6.9c-1.5-1.2-2.2,0.8-3.4,0.9C170.8,27.3,170.5,24.1,173,22.1z"/>
	<path class="st26" d="M169.1,73c3.2,2.2,1.4,5.5,1.7,8.3C169.6,78.7,169,76,169.1,73z"/>
	<path class="st31" d="M153,86c1.2,1.5,4.8,0.6,4,4c-1.4,2.7-2.7,5.3-4.1,8c-0.7,1.5-0.7,3.1-0.5,4.7c0.3,3.8-1,6.6-4.7,8.1
		c-0.9,0.4-1.8,0.8-2.5,1.6c-1.3,1.8-0.9,3.9-0.8,5.8c0.1,15.3-0.4,30.6,0.3,45.8c0.1,2.6-1.7,3.3-2.7,4.9c-1.6,1.5-3.5,2.7-5.7,3.2
		c-1.2,0.4-1.7-0.4-2.2-1.2c-0.9-2.4-0.7-4.9-0.7-7.4c0-15.1,0-30.3-0.1-45.4c0-2,0.8-5.4-1.8-5.4c-2.7-0.1-2,3.3-2,5.3
		c0.1,18.1-0.4,36.3,0.2,54.4c0.3,0.9,0.6,1.7,0.2,2.6c-4.6,2.9-10.5,3.4-14.5,7.5c-1,1-1.8,0.3-2.5-0.4c-2.9-2.6-6.6-3.7-10.1-5.3
		c-2.3-1.3-1.3-3.5-1.3-5.4c0-18.1,0-36.1-0.1-54.2c0-2.1,0.9-5-2.9-5c-2.8,1.6-2.1,4.4-2.1,6.7c-0.1,17.6,0,35.2,0,52.9
		c-0.3,1-0.7,1.8-1.9,1.3c-4.5-1.3-8.4-3.8-11.6-7.2c-0.6-0.8-0.7-1.5-0.1-2.4c1.7-1.7,1.6-3.9,1.6-6.1c0-13.2,0-26.3,0-39.5
		c0-6-0.2-6.2-6.6-6.5c-2.6-1.4-1.1-3.8-1.4-5.7c-0.3-1.9,0.4-3.9-0.4-5.8c-1.2-4.7-3-9.1-7.2-12.1c0.6-2.3,2.6-1.7,4.1-1.9
		c14.4-2.1,27.5-7.1,39.2-15.9c1-0.8,1.8-2.1,3.4-0.8C126.4,78.7,139.7,82.5,153,86z"/>
	<path class="st32" d="M103.6,47.2c7.7,1.2,11.4-1.8,11.6-9.6c4.6,7.8,4.6,7.8,13.4,9.5c-6.9,3.1-8.7,7.5-4.6,14.1
		c-5.6-5-10.5-5.8-15.5,0.9C111.7,55.2,111.3,50.3,103.6,47.2z"/>
	<path class="st33" d="M142.9,52.4c-3.4,2.9-4.9,5.6-2.1,9.7c-3.9-2-7.3-3.6-10.6,0.8c1.7-4.4,0.6-7.3-3.1-9.6
		c4.5,0.1,6.9-1.9,7.5-7.3C136.6,50.1,137.6,54.2,142.9,52.4z"/>
	<path class="st34" d="M142.8,77.7c1.2-4.1,1.2-7.3-3.4-9.3c4.8,0.4,6.9-2.2,8.1-6.3c1,4.2,3.5,5.9,8.7,5.7
		c-4.6,2.7-5.4,5.6-2.4,10.4C149.3,75.4,146,73.8,142.8,77.7z"/>
	<path class="st35" d="M76.5,67.6c5.9-0.7,5.9-0.7,8.9-5.9c0.8,4.3,3.2,6.1,7.5,5.3c-1,2.9-5.1,3.6-3.8,7.3c0.3,0.8-1,2.3-2.4,0.9
		c-2.3-2.3-3.9,1.7-5.8,0.8c-2.6-1.3,1.8-3.9-0.7-5.4C79.2,69.8,78.2,69,76.5,67.6z"/>
	<path class="st36" d="M97.2,47.3c1.1,4.1,3,6.6,8,5.6c-3.7,2.5-4.7,5.2-2.2,10c-4.3-2.8-7.5-3.6-11,0.1c1.3-5.9,1.3-5.9-3.4-10.3
		C94.2,54.6,95.7,51.3,97.2,47.3z"/>
	<path class="st37" d="M76.1,100c2.5,3.3-0.7,7.7,1.9,11c1.8,1.9,1.4,4.3,1.5,6.6c0.1,9.3,0.1,18.6,0,27.9c0,5.2,0,10.3,3,14.9
		c0.6,1,0.9,2.1,0.5,3.3c0,0.8,0,1.5,0,2.3c-4.7-3.6-7-8.4-7.1-14.2C75.9,134.6,76,117.3,76.1,100z"/>
	<path class="st38" d="M148,110.1c2.3-2.3,4.7-4.6,3.6-8.5c-0.3-1,0.1-2.7,1.3-3.5c0,15.7,0.2,31.4,0,47.1c-0.1,4.6-0.4,9.4-2,13.8
		c-1.7,0-1.8-1.3-2.1-2.5c1.2-12.2,0.5-24.4,0.7-36.7C149.6,116.5,149.2,113.2,148,110.1z"/>
	<path class="st39" d="M150,157c0.3,0.7,0.7,1.4,1,2c-1.4,4.7-4.7,7.8-8.9,10c1.8-2.2,1.1-4.8,1.1-7.3c-0.1-15.9-0.1-31.9,0-47.8
		c0-1.5-0.7-3.6,2-3.7c0.9,11.1,0.1,22.2,0.4,33.3c0.1,5.3-0.2,10.5,0.2,15.9C147.6,159.1,147.9,156.6,150,157z"/>
	<path class="st40" d="M94.6,173.2c0.5-0.4,0.9-0.7,1.4-1.1c3.6-0.6,4.6-2.8,4.5-6.3c-0.2-15.8-0.2-31.6,0-47.4
		c0-3.2-1.4-5.7-2.8-8.2c4.4-1.1,5.4,0.9,5.3,5c-0.2,20.6-0.1,41.1-0.1,61.7C100,176,97.1,175.2,94.6,173.2z"/>
	<path class="st41" d="M171.9,121.1c-1.4,3.9-3.7,4.6-6.8,1.7c-0.3-2.1,0.2-4,2.5-4.6C170,117.6,171.2,119,171.9,121.1z"/>
	<path class="st42" d="M130.1,175c-0.4-0.4-0.9-0.8-1.3-1.2c1.2-2.7,3.2-3.8,6.1-2.8c0.5,0.4,1,0.8,1.5,1.3
		C134.5,173.6,132.4,174.7,130.1,175z"/>
	<path class="st43" d="M175,204.1c-0.4-0.4-0.7-0.7-1.1-1.1c0.2-0.9-0.1-1.6-0.9-2.1c-2.9-9.1-9.4-11.8-17.2-6.6
		c-12,8-24.8,13.6-39.2,15c-30.7,3.1-61.9-13.6-74.4-41.9C23.8,125.9,26,85,52.6,47.2c17.6-25,54.7-35.3,80.3-25.2
		c8,3.1,15.4,7.4,22.9,11.5c6.9,3.8,15.2,2.8,17.3-3.3c2.3-0.9-0.1-5.1,3.5-5.1c1.8,3.9,1.1,8.1,1.2,12c0.4,13.2,0.2,26.5,0.1,39.8
		c0,1.6,0.3,3.5-1.6,4.3c-1,0.4-1.8-0.4-2.3-1.4l0,0.1c-1.7-2.8-1.3-6.2-2-9.2c-4.8-24.3-24.8-41.5-49.9-43.6
		C97.2,25,79.7,36.4,69.3,57.8C52,93.5,50.5,130.2,67.5,166.7c5.4,11.6,13.4,21.2,24.6,28.2c18.6,11.6,49.8,8.2,65-12.8
		c8.4-7.7,11.8-18.1,15.2-28.5c0.4-1.1,0.4-2.3,0.8-3.4c0.3-1.1,1.3-1.4,2.4-1.3c0.9,0.1,1.5,0.7,1.6,1.6c0.1,1,0.2,2,0.2,3
		c0,15.4,0,30.9,0,46.3C177.2,201.6,177.7,203.6,175,204.1z"/>
	<path class="st25" d="M174.1,79.9c2.1,1.7,2.9,0.8,2.9-1.5c-0.1-17.7-0.2-35.5-0.3-53.2c3.2,2.3-0.3,6.4,2.3,8.9
		c0,14.5,0,29,0,43.4c0,1.8,0.2,3.8-2.3,4.4C175.2,82.2,174.1,81.7,174.1,79.9z"/>
	<path class="st26" d="M172.1,70.8c1.4,2.9,1.4,6.1,2,9.2C170.9,77.4,172.2,73.9,172.1,70.8z"/>
	<path class="st44" d="M118.2,144c0,10-0.1,20,0,30c0,3-0.5,5.8-3.9,5.7c-3.2,0-4-2.6-4-5.7c0.1-19.8,0.1-39.6,0-59.5
		c0-3.2,0.9-4.3,4.2-4.4c3.5,0,3.7,1.8,3.6,4.4C118.1,124.3,118.2,134.2,118.2,144C118.2,144,118.2,144,118.2,144z"/>
	<path class="st45" d="M134.9,170.9c-2,0.9-4.1,1.9-6.1,2.8c-1.5-1.1-1-2.7-1-4.1c0-18.1,0-36.3,0-54.4c0-2.9,0-5.1,4-5.1
		c4.1,0,3.5,2.4,3.5,4.9c0,17.1,0,34.3,0,51.4C135.3,168,135,169.4,134.9,170.9z"/>
	<path class="st46" d="M97.8,110.2c3.3,0.3,4.5,1.7,4.5,5.3c-0.2,17.4-0.1,34.8-0.1,52.2c0,6.6,0,6.6-6.1,4.4
		c-1.6-1.2-1.1-3-1.1-4.6c0-17.6,0-35.2,0-52.7C94.9,112.5,94.8,110.4,97.8,110.2z"/>
	<path class="st47" d="M83,163.8c-3.8-4.8-5.1-10.1-5-16.3c0.3-12.1,0-24.3,0-36.5c7.5-1.9,7.9-1.6,7.9,6c0,14.9,0,29.8,0,44.8
		C85.9,164,86.1,166.1,83,163.8z"/>
	<path class="st48" d="M150,157c-1.7,2.2-2.4,5.1-4.9,6.7c-1.3-0.3-0.9-1.3-0.9-2c0-15.7,0-31.5,0-47.2c0-1.5-0.2-3,0.9-4.2
		c1,0,2-0.1,3-0.1c3.3,0.3,2.6,2.8,2.6,4.9C150.4,128.9,151.4,143,150,157z"/>
	<path class="st49" d="M117.8,93.4c0-3.8,0.1-7.7,0-11.5c0-2.1,0.7-3.2,2.9-2.9c3.5,0.4,7.9-1.4,9.9,2.7c2.1,4.2,2.3,8.8-1.5,12.5
		c-1.1,1.1-0.9,1.7-0.3,2.9c1.2,2.4,2.2,4.8,3.1,7.3c0.4,1,1.9,2.5-0.3,3.3c-1.7,0.6-2.9-0.3-3.5-1.9c-1-2.5-2-4.9-3-7.4
		c-0.5-1.3-1.4-2.5-2.9-2.2c-1.5,0.3-0.9,1.9-1,3c-0.1,1.5,0.1,3-0.1,4.5c-0.2,1.4,1.1,3.9-1.5,4c-2.9,0.1-1.7-2.7-1.8-4.2
		C117.6,100,117.8,96.7,117.8,93.4C117.8,93.4,117.8,93.4,117.8,93.4z"/>
	<path class="st50" d="M112.8,106.2c0.1,0.8-0.4,1.5-1.6,1.6c-1.4,0.1-2-0.7-2.4-2c-0.5-1.5,0.1-3.9-1.7-4.4
		c-2.5-0.8-5.4-1.3-5.9,2.8c-0.2,1.6-0.3,3.9-2.6,3.3c-2.7-0.7-0.7-2.9-0.5-4.2c1.3-7.2,2.8-14.3,4.2-21.5c0.3-1.5,0.5-3.1,2.5-3.2
		c1.3-0.1,2.3,0.5,2.6,1.8C109.2,89,110.9,97.4,112.8,106.2z"/>
	<path class="st51" d="M134.8,98.8c-0.1-7.9,4.4-12.5,10.1-11.1c1.6,0.4,3.1,1.2,4.1,2.6c0.7,1,1.6,2,0.6,3.1
		c-1.1,1.1-2.3,1.1-3.4-0.3c-1.9-2.5-4.3-3-6.1-0.4c-2.2,3.2-2.4,7.1,0,10.3c1.8,2.3,4.4,1.9,6.2-0.7c0.8-1.2,1.8-1.6,2.9-0.9
		c1.5,0.9,0.8,2.2,0.2,3.5c-1.3,2.9-3.8,4.4-6.6,4c-3.7-0.6-6.6-2.9-7.6-6.8C134.9,100.7,134.9,99.3,134.8,98.8z"/>
	<path class="st52" d="M78.8,98c-0.3-3.4,0.6-6.3,3.1-8.6c3-2.7,7.9-2.4,10.2,0.7c0.8,1.1,1.8,2.3,0.4,3.5c-1,0.9-2.1,0.6-3-0.5
		c-1.8-2.2-4-3-5.7-0.3c-2.1,3.2-2.6,7.1,0,10.3c2,2.4,4.4,1.8,6-1c0.6-1,1.6-1.4,2.6-0.8c1.3,0.7,1,1.9,0.6,3.1
		c-1.6,4.2-8,5.3-11.4,1.9C79.2,103.9,78.4,101.1,78.8,98z"/>
	<path class="st53" d="M121.1,87.4c0.1-2.4-0.6-4.7,3-4.6c3.4,0,4.3,1.9,4.3,4.7c0,2.7-1.8,3.5-4.2,3.7
		C120.6,91.5,121,89.3,121.1,87.4z"/>
	<path class="st54" d="M104.3,87.2c2.2,2.9,1.8,6.1,2.6,8.9c0.6,1.9-0.8,2.2-2.3,2.2c-1.7,0-2.4-0.6-2-2.4
		C103.3,93.1,103.7,90.3,104.3,87.2z"/>
</g>
</svg>
