<?xml version="1.0" encoding="utf-8"?>
<!-- Generator: Adobe Illustrator 16.0.0, SVG Export Plug-In . SVG Version: 6.00 Build 0)  -->
<!DOCTYPE svg PUBLIC "-//W3C//DTD SVG 1.1//EN" "http://www.w3.org/Graphics/SVG/1.1/DTD/svg11.dtd">
<svg version="1.1" id="Capa_1" xmlns="http://www.w3.org/2000/svg" xmlns:xlink="http://www.w3.org/1999/xlink" x="0px" y="0px"
	 width="595px" height="615.5px" viewBox="0 0 595 615.5" enable-background="new 0 0 595 615.5" xml:space="preserve">
<g>
	<g>
		<path fill-rule="evenodd" clip-rule="evenodd" fill="#FFFFFF" d="M95.688,49.828c2.24,4.271,5.243,6.549,6.622,13.828
			c2.096,11.063-12.649,13.917-18.887,6.409c-1.783-2.145-4.188-6.282-4.87-9.233c-3.599,0.847-57.674,36.21-61.654,39.175
			c-2.539,1.89-4.462,3.75-6.34,5.069c-7.063,4.962-7.092,8.423-7.559,14.547v19.803c0,15.895,1.887,29.737,3.094,44.034
			c2.788,33.049,16.711,89.405,26.019,117.571c5.899,17.85,19.36,53.958,26.198,69.448c8.412,19.056,30,60.585,41.428,77.66
			c3.258,4.867,5.769,9.594,9.024,14.473c9.511,14.248,27.32,38.012,38.519,50.729c17.016,19.321,22.06,24.419,41.281,41.654
			c9.541,8.554,12.646,10.83,23.29,18.94c11.667,8.893,32.467,19.914,46.178,25.709c14.947,6.317,25.375,10.555,42.505,10.555
			c26.459,0,75.111-29.083,97.184-47.336c7.295-6.033,12.471-11.286,19.322-16.656c9.258-7.255,31.772-33.74,40.651-44.646
			c12.21-14.993,30.105-40.022,39.864-57.231c28.238-49.802,32.02-53.78,55.567-114.478c4.738-12.216,8.271-23.457,12.333-36.284
			c8.941-28.23,13.138-49.314,18.798-78.489c7.173-36.998,8.241-64.092,8.354-101.587c0.334-6.086-1.074-8.989-5.918-9.963
			c-14.711-4.865-38.626-23.424-48.742-29.969c-3.235-2.093-15.514-10.368-18.545-10.368c-3.215,0-7.394,11.003-14.798,11.003
			h-4.674c-1.886,0-5.451-3.6-5.451-5.501c0-9.234-0.417-9.622,4.672-17.292c-3.109-4.685-17.911-14.975-23.899-18.323
			c-4.906-2.743-46.854-28.637-49.651-28.227c-1.275,0.187-46.576,21.117-54.096,23.851
			c-60.404,21.969-106.737,16.545-164.331-7.274c-5.654-2.338-36.527-17.967-39.832-17.967c-5.589,0-52.134,32.817-62.937,40.237
			C101.203,45.9,99.056,48.03,95.688,49.828z"/>
		<path fill-rule="evenodd" clip-rule="evenodd" fill="#00A64D" d="M102.861,51.399c2.749,6.607,9.239,18.584-1.917,25.73
			c-10.097,6.468-21.896-2.013-24.479-9.484c-3.536,1.359-27.438,17.186-32.417,20.446c-10.284,6.731-23.008,13.628-31.036,21.347
			c-5.69,5.469-5.445,10.609-5.386,20.555c0.052,8.448,0.247,17.55,0.856,25.937c5.295,72.789,24.126,143.641,53.095,209.675
			c20.426,46.561,47.339,92.07,78.421,131.5c3.917,4.969,7.312,9.353,11.783,14.044l12.54,14.075
			c7.55,8.625,16.066,15.14,19.797,19.323c5.611,6.291,29.334,24.885,36.256,29.433c10.875,7.146,21.473,12.727,34.27,18.883
			c32.099,15.442,48.444,16.434,81.513,2.195c17.359-7.473,49.6-27.073,64.135-40.607c7.932-7.385,20.884-18.059,27.161-25.249
			l12.185-13.624c1.217-1.291,1.655-2.142,2.752-3.544l9.547-10.781c8.361-11.067,26.312-34.269,33.297-45.786
			c9.797-16.157,19.561-33.437,28.978-50.151c6.229-11.054,11.797-23.287,17.301-35.21c10.793-23.376,21.437-51.688,28.854-76.201
			c18.184-60.075,27.459-115.532,27.621-183.56c-0.564-2.374-7.896-2.798-17.884-9.5c-8.804-5.907-45.109-30.763-49.917-32.094
			c-3.948,3.204-4.555,6.013-9.268,8.646c-4.075,2.276-11.012,2.58-15.215,0.266c-10.135-5.58-6.191-16.128-2.77-26.367
			c-1.73-0.933-2.618-1.987-4.33-3.385c-1.502-1.226-3.106-2.275-5.024-3.581c-14.496-9.866-37.746-22.725-53.778-32.205
			c-5.338-3.156-6.904-0.758-12.379,1.585c-41.021,17.553-67.878,34.148-120.78,33.598c-41.717-0.434-75.196-13.398-108.072-29.133
			c-4.136-1.979-7.58-3.913-11.55-5.615c-13.101-5.619-8.703-5.128-33.756,10.614C136.239,27.585,105.509,47.619,102.861,51.399z"/>
		<path fill-rule="evenodd" clip-rule="evenodd" fill="#FFFFFF" d="M113.753,56.687c6.542,13.585,5.791,27.839-8.467,32.755
			c-6.455,2.225-12.909,0.678-18.135-1.892c-14.98-7.368-1.892-11.744-41.809,13.658c-4.735,3.012-25.921,15.446-25.91,20.141
			c0.221,96.662,25.083,182.092,65.36,265.616c18.273,37.893,42.178,75.141,68.493,107.737
			c21.632,26.796,50.228,54.311,79.475,73.057c12.6,8.077,49.361,27.344,67.745,25.703c19.117-1.703,51.66-19.003,65.155-27.618
			c5.625-3.591,21.686-15.711,26.678-20.243c4.682-4.251,7.977-7.209,12.522-10.944c10.168-8.35,25.306-26.065,33.922-36.476
			c3.679-4.446,6.959-8.032,10.536-12.934c3.44-4.713,6.655-8.777,10.057-13.429c68.897-94.236,116.368-226.39,116.813-353.678
			c-3.907-1.075-23.025-14.493-28.137-17.808c-4.753-3.083-8.771-5.709-13.697-8.968c-4.188-2.77-10.368-7.188-14.17-9.01
			c-3.741,2.229-14.766,14.27-29.547,5.985c-1.991-1.116-1.414-0.703-2.818-1.935c-0.413-0.363-2.289-2.198-2.742-2.707
			c-7.014-7.884-4.605-17.176-2.096-24.438c-3.263-4.181-31.85-21.946-38.242-26.048c-3.39-2.177-16.392-12.147-19.725-11.057
			L403.81,33.782c-68.175,32.073-140.713,35.138-209.146,1.11c-7.152-3.557-14.146-7.02-21.311-10.735
			c-6.614-3.432-5.474-2.705-20.302,7.32c-6.181,4.179-13.299,8.414-19.496,12.579C128.21,47.646,118.848,54.356,113.753,56.687z"/>
		<path fill-rule="evenodd" clip-rule="evenodd" fill="#00A54E" d="M129.701,62.885c1.269,16.989,0.138,22.974-9.211,33.175
			c-9.701,10.584-26.885,10.563-41.164,3.172c-3.795-1.964-3.273-1.215-6.677,1.174c-10.778,7.563-25.757,16.258-36.551,23.656
			c-2.372,1.625-3.006,0.976-3.002,3.575c0.172,101.322,36.633,211.181,86.34,294.332c2.911,4.871,5.684,9.139,8.636,14.084
			c13.842,23.182,26.896,37.719,42.457,57.745c6.811,8.765,31.012,32.787,39.363,39.69c19.875,16.427,30.017,23.366,53.827,35.293
			c6.428,3.219,26.502,10.973,34.366,10.618c20.213-0.916,57.903-22.605,74.866-36.021c2.643-2.089,3.693-2.799,6.158-4.79
			c1.96-1.588,4.765-3.786,6.402-5.354l8.508-7.873c1.109-1.138,1.757-1.534,2.955-2.53c7.517-6.257,15.012-15.252,22.062-22.526
			c20.219-20.866,54.729-73.622,64.82-92.607c22.199-41.757,39.657-79.943,53.394-126.143
			c14.358-48.298,24.803-101.252,24.757-155.971c-4.158-1.625-31.651-20.262-38.22-24.45c-4.887-3.116-7.09,1.373-14.304,3.023
			c-13.813,3.162-25.064-1.923-32.228-8.643c-8.076-7.576-11.063-16.497-10.405-31.806c-7.667-3.357-38.405-25.831-40.91-25.833
			l-27.346,13.412c-64.963,27.681-130.019,30.218-195.767,2.78c-9.772-4.078-19.437-8.676-28.473-13.66
			c-5.717-3.155-4.808-3.185-9.901,0.194C159.563,43.846,132.531,61.727,129.701,62.885z"/>
	</g>
	<g>
		<path fill="#FFFFFF" d="M408.955,330.285h-21.473v-63.984h21.473c2.576,17.428,7.4,26.143,14.496,26.143
			c5.105,0,7.68-4.309,7.68-12.924c0-4.504-0.891-8.225-2.691-11.163c-1.921-3.279-5.949-7.734-12.131-13.511
			c-7.774-7.344-13.488-13.708-17.163-19.043c-3.42-4.896-6.348-11.652-8.782-20.268c-2.412-8.469-3.63-17.917-3.63-28.247
			c0-18.553,2.882-33.044,8.641-43.471c5.714-10.428,12.762-15.617,21.145-15.617c8.359,0,15.456,4.993,21.263,14.931v-12.337
			h21.613v56.788h-21.332c-2.624-15.715-7.235-23.548-13.862-23.548c-4.66,0-7.003,4.161-7.003,12.483
			c0,4.014,0.657,7.05,1.99,9.057c1.289,2.105,5.411,6.708,12.412,13.903c9.39,9.742,15.642,16.89,18.803,21.344
			c1.592,2.203,3.231,5.288,4.917,9.252c1.663,3.966,3.045,8.078,4.144,12.289c2.507,9.351,3.771,19.483,3.771,30.401
			c0,16.742-2.974,30.891-8.921,42.492c-5.947,11.75-13.442,17.624-22.503,17.624c-8.408,0-16.04-5.238-22.855-15.666V330.285z"/>
		<path fill="#FFFFFF" d="M293.032,486.358h-37.793v-47.731h7.282l17.891-103.979h-7.681v-47.779h68.609v47.779h-7.681
			l18.243,103.979h7.001v47.731h-49.808v-43.717h8.359l-3.629-25.114h-24.423l-4.191,25.114h7.82V486.358L293.032,486.358z
			 M302.024,337.487l-8.993,55.22h17.093L302.024,337.487z"/>
		<path fill="#FFFFFF" d="M233.541,261.801c-2.108,21.295-6.918,38.782-14.473,52.333c-7.618,13.667-18.171,20.512-31.564,20.512
			c-18.288,0-31.823-9.986-40.628-29.959c-8.828-19.926-13.23-44.207-13.23-72.846c0-28.884,4.333-53.41,12.973-73.579
			c8.641-20.169,19.857-30.254,33.672-30.254c11.217,0,20.349,5.776,27.374,17.378v-13.364h22.925v72.844h-23.814
			c-1.218-9.057-3.302-16.253-6.229-21.491c-2.927-5.141-6.275-7.735-10.022-7.735c-10.35,0-15.501,18.603-15.501,55.76
			c0,37.254,5.338,55.906,16.04,55.906c7.739,0,12.35-5.768,15.348-25.562L233.541,261.801z"/>
	</g>
</g>
</svg>
