<?xml version="1.0" encoding="utf-8"?>
<!-- Generator: Adobe Illustrator 16.0.0, SVG Export Plug-In . SVG Version: 6.00 Build 0)  -->
<!DOCTYPE svg PUBLIC "-//W3C//DTD SVG 1.1//EN" "http://www.w3.org/Graphics/SVG/1.1/DTD/svg11.dtd">
<svg version="1.1" id="Capa_1" xmlns="http://www.w3.org/2000/svg" xmlns:xlink="http://www.w3.org/1999/xlink" x="0px" y="0px"
	 width="595px" height="673.5px" viewBox="0 0 595 673.5" enable-background="new 0 0 595 673.5" xml:space="preserve">
<g>
	<g>
		<path fill-rule="evenodd" clip-rule="evenodd" fill="#005096" d="M6.273,185.239v40.065l0.391,2.303
			c3.114,69.014,14.678,119.956,41.358,184.791c7.672,18.646,20.771,43.292,31.139,60.417c6.409,10.587,11.371,17.927,18.029,27.983
			c2.994,4.522,6.29,8.663,9.431,13.137c7.196,10.246,17.613,22.08,25.646,31.866c3.429,4.177,10.923,11.095,13.755,14.549
			c0.961,1.173,1.805,1.806,2.817,2.946c3.664,4.124,7.524,7.821,11.358,11.644c20.862,20.795,51.827,45.618,77.003,60.586
			c17.065,10.146,26.632,15.946,45.346,23.667c3.035,1.252,14.391,6.675,17.047,6.444l30.843-14.333
			c4.977-2.486,9.788-5.251,14.658-7.907c16.9-9.213,39.21-25.254,54.511-37.056c2.651-2.044,19.564-16.152,21.627-18.202
			c2.475-2.461,6.226-6.19,8.893-8.364c4.288-3.495,22.881-23.193,28.074-28.979c3.57-3.978,6.671-8.16,10.292-12.27
			c38.421-43.603,73.115-105.257,91.66-160.067c15.851-46.855,27.125-101.323,28.395-151.731l0.179-2.093
			c0.024-0.116,0.08-0.274,0.101-0.366c0.022-0.091,0.063-0.244,0.112-0.359v-38.671c-0.648-1.386-1.815-29.282-2.191-33.69
			c-1.835-21.584-7.312-74.387-12.724-94.672c-23.351,8.857-40.704,16.071-65.479,20.722c-32.512,6.103-67.2,5.321-98.754-0.451
			c-25.417-4.649-52.864-14.456-69.655-27.631c-13.841-10.861-27.598-26.885-42.319-42.87
			C285.382,21.52,271.864,35.69,258.463,46.72c-18.356,15.107-44.534,24.626-71.838,30.333c-28.063,5.867-60.101,6.399-89.261,2.397
			c-25.186-3.457-35.115-8.084-56.908-15.609c-5.712-1.973-12.298-4.833-17.952-6.282c-0.617,4.969-1.985,10.411-2.908,15.279
			c-1.004,5.303-1.69,10.292-2.412,15.716c-3.055,22.962-6.494,38.51-8.601,62.988C8.223,155.726,6.745,184.235,6.273,185.239z"/>
		<path fill-rule="evenodd" clip-rule="evenodd" fill="#E82227" d="M135.459,95.342c-19.503,0-37.851-1.758-56.313-5.59
			c-13.92-2.89-22.117-5.963-34.721-10.421c-3-1.061-8.691-3.434-11.607-3.92c-1.117,2.417-8.625,55.119-9.412,61.857
			c-15.071,128.95,12.318,246.224,79.249,347.894c10.105,15.351,17.739,25.195,28.782,38.907
			c4.932,6.125,10.214,12.661,15.466,18.164l5.705,5.79c3.6,3.956,7.373,7.646,10.972,11.594c4.487,4.921,8.67,8.074,11.524,11.041
			c9.24,9.61,26.304,23.347,36.496,31.185c6.593,5.071,19.581,14.489,26.507,18.621c16.195,9.663,26.02,16.092,43.722,23.962
			c2.026,0.9,14.905,6.614,16.163,6.776c3.509,0.455,38.408-18.077,45.244-22.053c4.758-2.768,9.333-5.785,13.854-8.699
			c19.059-12.279,40.254-28.465,57.264-44.054l5.764-5.73c4.036-3.702,7.798-7.036,11.628-10.938l13.438-14.444
			c83.736-92.028,130.604-210.646,130.518-339.326c-0.015-22.569-0.946-45.808-3.724-67.961
			c-2.639-21.051-6.294-42.449-9.204-62.988c-3.363,1.634-17.65,6.502-22.051,7.972c-60.366,20.163-148.192,15.489-200.223-17.017
			c-6.587-4.115-7.699-5.433-12.978-9.585c-6.4-5.037-25.022-25.315-29.705-31.198c-7.462,11.433-18.95,21.472-28.501,29.737
			c-8.974,7.766-20.218,14.931-33.732,20.676C205.256,88.486,172.408,95.342,135.459,95.342z"/>
		<path fill-rule="evenodd" clip-rule="evenodd" fill="#005096" d="M46.1,97.805c-3.503,23.628-7.342,43.987-8.714,68.266
			c-0.421,7.445-1.401,16.745-1.401,23.907v29.794c0,7.443,1.887,30.894,2.744,39.061c3.634,34.637,11.284,71.946,22.318,104.024
			c18.388,53.458,41.453,96.129,73.028,137.662c11.523,15.155,16.654,20.616,28.596,34.369l10.198,10.787
			c3.629,3.204,3.004,3.147,5.251,5.233c1.918,1.781,3.538,3.256,5.499,5.003c3.504,3.123,6.716,6.898,10.954,10.44
			c18.226,15.234,26.674,22.913,47.518,36.857c12.604,8.432,39.654,24.582,54.884,29.52c2.013,0.652,5.313-1.388,7.368-2.32
			c8.185-3.711,13.008-5.9,21.115-10.366c17.422-9.593,41.706-25.421,56.507-37.941l28.176-24.713l18.175-18.342
			c16.777-17.297,36.776-42.95,49.378-61.836c21.179-31.745,41.84-70.803,55.613-112.688c11.33-34.455,18.81-66.919,22.8-103.518
			c0.692-6.342,1.277-12.747,1.757-19.192l0.677-15.337c0.093-1.812,0.587-3.303,0.587-5.024v-35.669l-1.446-23.09
			c-0.443-7.385-1.241-14.907-2.108-22.216c-1.633-13.731-3.703-29.454-6.304-42.733c-5.025,1.275-12.81,3.935-19.76,5.729
			c-65.348,16.869-158.963,8.91-210.786-33.005c-1.346-1.088-2.906-2.183-3.948-3.197c-5.134-4.995-9.229-9.243-13.854-14.684
			c-1.223-1.439-1.764-2.548-3.105-4.001c-0.41,0.323-9.086,11.561-14.455,16.151c-10.188,8.71-17.236,14.474-30.537,21.106
			c-42.088,20.985-89.427,28.303-137.613,25.379c-12.458-0.755-24.799-2.243-36.657-4.628c-5.77-1.161-11.045-2.485-16.593-3.969
			C58.681,101.748,47.988,97.907,46.1,97.805z"/>
		<path fill-rule="evenodd" clip-rule="evenodd" fill="#EA1D25" d="M212.378,111.542l-0.097,456.711
			c0.376,2.328,25.515,20.341,27.058,21.469c3.408,2.491,25.813,17.469,30.034,18.868l0.004-520.912
			c-1.818,0.75-4.323,2.431-6.156,3.504c-6.539,3.83-13.342,7.14-20.431,10.067C233.141,105.235,223.042,108.817,212.378,111.542z"
			/>
		<path fill-rule="evenodd" clip-rule="evenodd" fill="#EA1D25" d="M326.433,608.391c5.53-2.452,24.346-14.851,29.626-18.772
			c2.355-1.749,4.639-3.329,7.034-5.091l13.641-10.604c0.825-0.674,6.486-5.087,6.644-5.537l0.146-456.652
			c-10.611-3.826-16.719-4.528-30.014-10.104c-4.856-2.037-9.385-4.287-13.924-6.413c-4.92-2.305-9.697-5.702-13.134-7.312
			L326.433,608.391z"/>
		<path fill-rule="evenodd" clip-rule="evenodd" fill="#EA1D25" d="M155.137,511.466l0.088-390.665
			c-9.851,0.1-19.287,0.784-29.319,0.514c-9.501-0.257-18.385-1.107-27.677-1.946c-0.578,5.861-0.097,103.401-0.097,112.146v168.174
			c0,4.765-0.767,24.805,0.612,27.563c10.644,21.283,29.294,50.034,43.863,68.761C146.683,501.252,150.794,506.893,155.137,511.466z
			"/>
		<path fill-rule="evenodd" clip-rule="evenodd" fill="#EA1D25" d="M440.58,120.786V510.42c1.812-1.376,4.764-5.462,6.364-7.457
			c10.202-12.716,20.218-27.106,29.12-40.879c7.515-11.622,13.783-23.295,20.414-35.514c1.902-3.507,1.195-7.2,1.195-12.801V147.429
			c0-9.104,0.375-19.036-0.045-28.038c-4.086,0.061-9.117,0.873-13.423,1.19C468.688,121.728,456.196,121.519,440.58,120.786z"/>
	</g>
	<g>
		<path fill-rule="evenodd" clip-rule="evenodd" fill="#100D2D" d="M193.313,321.373c0-46.593,49.56-95.817,96.602-95.817h16.493
			c8.609,0,13.588,3.141,20.42,3.141v-18.063l-28.219-3.577l-7.123,0.435c-30.327,0-67.54,21.155-81.872,37.506
			c-17.77,20.275-34.364,47.322-34.364,85.015c0,63.851,54.46,121.732,117.021,121.732h7.854l26.753-2.734l-0.05-18.47l-25.005,4.65
			l-7.981-0.724c-27.436,0-54.989-15.438-68.932-29.242c-13.25-13.117-31.596-41.028-31.596-66.575V321.373z"/>
		<path fill-rule="evenodd" clip-rule="evenodd" fill="#100D2D" d="M383.375,271.108c6.924,2.506,18.574,37.868,18.85,50.265h-18.85
			V271.108L383.375,271.108z M384.16,338.651L384.16,338.651h17.279v4.712c0,12.396-10.814,36.657-16.367,44.107
			c-9.67,12.972-16.433,20.653-29.97,29.718v19.635c13.767-3.208,37.508-28.746,44.728-40.093
			c10.466-16.451,19.674-37.522,19.674-64.362v-9.425c0-40.647-28.797-77.767-53.406-94.246v164.144
			c4.041-2.705,18.063-22.728,18.063-28.273V338.651z"/>
		<path fill-rule="evenodd" clip-rule="evenodd" fill="#100D2D" d="M164.255,330.797c0-74.264,59.933-134.3,134.299-134.3
			c71.139,0,131.945,59.856,131.945,131.159v9.425c0,65.82-62.765,125.661-130.374,125.661h-4.712
			C224.35,462.741,164.255,401.792,164.255,330.797L164.255,330.797z M298.554,469.81L298.554,469.81
			c75.82,0,139.013-64.208,139.013-140.583c0-74.236-62.844-139.012-136.655-139.012h-10.21
			c-69.211,0-132.729,65.912-132.729,136.656v4.713C157.971,407.418,222.252,469.81,298.554,469.81z"/>
		<path fill-rule="evenodd" clip-rule="evenodd" fill="#100D2D" d="M277.35,282.104c0-2.411,0.727-4.713,3.142-4.713h0.785
			c2.414,0,3.141,2.302,3.141,4.713v10.995h18.064v-32.2c0-13.177-9.331-22.776-21.99-22.776c-11.678,0-20.42,6.909-20.42,18.849
			v53.406c0,12.343,26.703,31.528,26.703,40.054v34.556c0,3.728-1.661,4.787-4.713,5.498c-9.345-4.944,0.647-29.845-6.283-29.845
			h-15.708v34.557c0,13.352,13.438,27.489,26.703,27.489h0.786c8.291,0,14.922-7.754,14.922-15.708v-65.972
			c0-9.856-25.132-28.578-25.132-37.698V282.104z"/>
		<path fill-rule="evenodd" clip-rule="evenodd" fill="#100D2D" d="M239.651,275.82v47.123h-21.207
			C218.445,307.525,230.943,281.652,239.651,275.82L239.651,275.82z M233.368,377.135L233.368,377.135
			c-5.788-10.938-14.923-22.923-14.923-40.054h21.207v66.757l13.139,8.184l0.213-164.475c-21.925,14.681-48.694,39.56-48.694,75.396
			v13.351c0,14.772,7.359,30.999,12.566,40.84H233.368z"/>
		<path fill-rule="evenodd" clip-rule="evenodd" fill="#100D2D" d="M310.336,422.687c22.891-5.333,27.856-7.526,44.767-18.849
			v-18.85l0.554,0.812l-28.049,19.178l-0.779-1.14v-163.36l-16.397-3.567L310.336,422.687z"/>
		<path fill-rule="evenodd" clip-rule="evenodd" fill="#FFFFFF" d="M148.918,329.437c0,57.2,33.397,108.62,83.962,133.863
			c95.49,47.668,213.416-22.586,213.416-134.81c0-42.278-21.061-80.286-42.381-101.572c-13.499-13.477-23.038-21.586-41.273-30.704
			c-27.027-13.515-44.318-14.519-74.506-14.519c-46.876,0-97.924,35.411-120.277,76.712c-7.445,13.759-11.043,21.99-15.165,38.818
			C150.667,305.506,148.918,319.306,148.918,329.437z"/>
		<path fill-rule="evenodd" clip-rule="evenodd" fill="#005096" d="M279.709,190.808c-69.664,9.338-131.838,75.079-120.704,157.887
			c10.282,76.472,83.101,130.514,157.51,119.868c68.654-9.821,131.178-74.517,119.857-156.882
			C426.824,242.21,362.027,179.775,279.709,190.808L279.709,190.808z M164.255,330.797c0-74.264,59.933-134.3,134.3-134.3
			c71.138,0,131.944,59.856,131.944,131.159v9.425c0,33.486-22.065,72.229-39.847,88.17c-21.291,19.089-50.572,37.49-90.527,37.49
			h-4.713C224.35,462.741,164.255,401.792,164.255,330.797z"/>
		<path fill-rule="evenodd" clip-rule="evenodd" fill="#005096" d="M175.25,329.226c0,64.535,54.04,122.519,117.021,122.519
			c12.004,0.87,22.633-1.478,34.557-3.142l0.046-17.798c-12.55,2.061-20.758,3.586-33.032,3.662
			c-27.21,0-55.233-15.458-68.924-29.249c-13.279-13.377-31.604-40.76-31.604-66.568v-17.278c0-25.467,17.303-52.25,30.435-65.382
			c9.778-9.778,26.111-21.289,44.39-26.942c23.459-7.255,41.97-6.452,58.69-0.352l-0.002-18.053
			c-7.763-1.919-16.717-3.001-28.272-3.152h-7.067c-31.159,0-65.998,20.808-81.501,37.091
			C192.482,262.967,175.25,293.639,175.25,329.226z"/>
		<path fill-rule="evenodd" clip-rule="evenodd" fill="#005096" d="M366.098,392.841c4.041-2.704,18.063-22.728,18.063-28.273
			v-25.917h17.279v4.711c0,27.008-24.22,61.085-46.337,75.397v18.063c13.702-3.193,36.863-28.198,44.453-39.582
			c10.592-15.888,19.948-38.728,19.948-64.873v-9.425c0-40.647-28.797-77.767-53.406-94.246V392.841L366.098,392.841z
			 M383.375,321.373v-50.265c6.924,2.505,18.574,37.868,18.85,50.265H383.375z"/>
		<path fill-rule="evenodd" clip-rule="evenodd" fill="#005096" d="M260.071,256.971v53.406c0,12.343,26.703,31.528,26.703,40.054
			v34.556c0,2.749-1.726,5.498-3.927,5.498c-10.7,0,0.187-29.845-7.068-29.845h-15.708v34.557c0,13.352,13.438,27.489,26.703,27.489
			h0.786c8.291,0,14.922-7.754,14.922-15.708v-65.972c0-9.856-25.132-28.578-25.132-37.698v-21.206c0-2.411,0.727-4.713,3.142-4.713
			h0.785c2.414,0,3.141,2.302,3.141,4.713v10.995h18.064v-32.2c0-13.177-9.331-22.776-21.99-22.776
			C268.813,238.123,260.071,245.031,260.071,256.971z"/>
		<path fill-rule="evenodd" clip-rule="evenodd" fill="#005096" d="M204.309,322.943v13.351c0,14.771,7.359,30.999,12.566,40.84
			h16.493c-5.788-10.938-14.923-22.923-14.923-40.054h21.207l0.128,66.556l13.223,8.054V247.547
			c-14.259,9.548-22.576,14.903-32.526,29.519C213.705,287.013,204.309,306.924,204.309,322.943L204.309,322.943z M218.445,322.943
			c0-15.417,12.498-41.292,21.207-47.124v47.124H218.445z"/>
		<path fill-rule="evenodd" clip-rule="evenodd" fill="#005096" d="M310.336,422.687c22.891-5.333,27.856-7.526,44.767-18.849
			v-18.85c-5.704,5.671-16.688,15.789-28.274,18.85l-0.017-163.285l-16.476-3.215V422.687z"/>
		<path fill-rule="evenodd" clip-rule="evenodd" fill="#005096" d="M335.896,322.062h2.355c2.538,0,3.928,2.851,3.928,5.498v2.356
			c0,3.183-0.847,7.068-3.928,7.068h-2.355V322.062L335.896,322.062z M339.823,342.482L339.823,342.482
			c5.579,0,7.067-6.212,7.067-11.781v-0.785c0-7.029-1.766-14.138-8.64-14.138h-7.067v26.704H339.823z"/>
		<path fill-rule="evenodd" clip-rule="evenodd" fill="#005096" d="M353.53,322.158h7.854v-6.284h-12.565v25.132
			c0,1.811,0.546,2.356,2.355,2.356h10.21v-6.283h-7.854v-5.498h7.068v-5.498h-7.068V322.158z"/>
	</g>
</g>
</svg>
