<?xml version="1.0" encoding="utf-8"?>
<!-- Generator: Adobe Illustrator 16.0.0, SVG Export Plug-In . SVG Version: 6.00 Build 0)  -->
<!DOCTYPE svg PUBLIC "-//W3C//DTD SVG 1.1//EN" "http://www.w3.org/Graphics/SVG/1.1/DTD/svg11.dtd">
<svg version="1.1" id="Capa_1" xmlns="http://www.w3.org/2000/svg" xmlns:xlink="http://www.w3.org/1999/xlink" x="0px" y="0px"
	 width="694px" height="721px" viewBox="0 0 694 721" enable-background="new 0 0 694 721" xml:space="preserve">
<g>
	<path fill-rule="evenodd" clip-rule="evenodd" fill="#14110C" d="M6.632,93.852v34.538c0.575,1.688,0.925,23.666,1.115,27.597
		c4.215,87.12,22.384,182.462,57.767,261.131c6.066,13.487,11.927,26.591,18.758,39.193c21.095,38.917,41.241,70.717,69.502,104.405
		l16.69,19.169c8.181,8.244,16.252,17.877,25.093,25.981l34.138,30.715c22.323,20.24,71.81,53.508,98.504,68.515
		c2.982,1.676,6.139,3.385,9.137,5.122c2.442,1.415,7.619,3.759,9.379,5.416h0.806c1.899-1.712,6.493-3.703,9.106-5.232
		c17.748-10.388,27.528-15.877,45.316-27.393c17.518-11.342,34.174-23.639,50.494-36.471c7.16-5.631,34.687-28.927,38.739-33.467
		c2.705-3.03,4.807-4.701,7.538-7.205c4.957-4.545,9.705-9.694,14.354-14.627c28.638-30.392,54.105-61.867,75.92-97.967
		c48.782-80.732,76.691-162.839,90.016-257.739c3.733-26.589,6.222-52.665,7.522-79.547c0.189-3.937,0.538-25.902,1.114-27.597
		V94.053c-7.416,1.224-15.561,3.614-23.114,5.178c-25.784,5.337-50.931,7.984-77.612,7.537
		c-83.368-1.395-161.552-36.147-223.987-87.093l-15.36-12.702h-0.517c-1.346,1.679-5.968,4.776-7.846,6.314
		c-16.227,13.294-40.983,30.122-58.743,40.488c-53.178,31.039-109.475,51.598-173.998,53.141c-26.15,0.625-51.92-2.071-77.209-7.681
		C21.961,97.618,13.743,95.021,6.632,93.852z"/>
	<path fill-rule="evenodd" clip-rule="evenodd" fill="#40AB35" d="M300.169,303.199l0.019,357.431
		c2.547,2.513,44.841,28.6,46.95,28.6c2.119-0.001,44.342-26.062,46.888-28.6l0.063-375.497L300.169,303.199z"/>
	<path fill-rule="evenodd" clip-rule="evenodd" fill="#40AB35" d="M488.34,266.598l-0.103,317.136
		c1.043-2.004,4.611-4.341,6.597-6.291c2.264-2.223,4.139-4.606,6.271-7.01c1.122-1.264,2.125-1.86,3.237-3.126
		c1.136-1.29,1.946-2.575,3.136-3.762l12.686-14.325c4.955-6.631,12.646-14.803,17.962-22.312
		c7.524-10.629,14.677-19.726,22.246-31.287c7.069-10.798,13.548-21.712,20.516-33.503c2.535-4.289,1.272-19.279,1.272-25.431
		V248.43L488.34,266.598z"/>
	<path fill-rule="evenodd" clip-rule="evenodd" fill="#40AB35" d="M112.134,339.736l-0.033,116.11
		c-0.039,5.012,0.506,4.723,2.552,8.435c4.989,9.052,10.557,17.898,15.99,26.241c8.796,13.507,16.52,24.453,26.123,37.25
		l21.143,26.02c1.105,1.25,1.524,1.513,2.544,2.848l12.716,13.796c2.222,2.499,5.177,6.235,7.603,8.136
		c1.414,1.107,4.537,3.913,5.058,5.163l0.208-262.18L112.134,339.736z"/>
	<path fill-rule="evenodd" clip-rule="evenodd" fill="#FFFFFF" d="M78.268,211.426l3.962-0.769c0.915,4.537,1.575,7.182,1.995,7.915
		c0.421,0.735,1.5,1.585,3.256,2.565c1.756,0.98,3.907,1.639,6.468,1.973c2.545,0.337,5.089,0.25,7.619-0.242
		c4.34-0.843,7.574-2.664,9.734-5.481c2.148-2.798,2.893-5.93,2.227-9.356c-0.616-3.174-1.952-5.428-3.992-6.776
		c-2.074-1.359-5.624-1.909-10.649-1.666c-7.448,0.371-12.558,0.189-15.33-0.561c-2.769-0.734-5.123-2.186-7.061-4.353
		c-1.942-2.184-3.236-4.983-3.906-8.426c-1.122-5.768-0.046-11.066,3.229-15.863c3.292-4.8,9.38-8.055,18.309-9.792
		c3.491-0.677,6.639-1.012,9.458-1.022c2.805-0.006,5.692,0.33,8.66,0.992l0.67,1.012c-0.125,2.046-0.13,3.859-0.03,5.471
		c0.099,1.596,0.436,4.336,1.027,8.217l-3.963,0.771c-1.076-4.7-1.812-7.315-2.239-7.834c-0.778-0.893-2.463-1.675-5.054-2.33
		s-5.42-0.692-8.469-0.1c-4.197,0.816-7.252,2.471-9.166,4.963c-1.914,2.494-2.567,5.345-1.941,8.566
		c0.383,1.966,1.187,3.587,2.43,4.863c1.226,1.263,2.771,2.088,4.604,2.449c1.847,0.358,5.663,0.434,11.449,0.238
		c5.256-0.238,8.845-0.153,10.812,0.231c3.203,0.616,5.821,2.001,7.822,4.156c2.021,2.168,3.394,5.116,4.121,8.856
		c1.262,6.492-0.17,12.383-4.297,17.671c-4.146,5.276-10.518,8.75-19.132,10.425c-3.836,0.746-7.396,1.062-10.667,0.932
		c-3.272-0.131-6.746-0.713-10.425-1.759c0.135-2.244,0.117-4.265-0.033-6.046C79.531,218.849,79.037,215.553,78.268,211.426
		L78.268,211.426z M135.267,216.221c2.847-0.716,4.568-1.345,5.158-1.917c0.398-0.388,0.896-1.691,1.491-3.911
		c1.095-4.356,2.405-10.371,3.936-18.025l8.509-43.089l6.791-1.32l30.396,45.429c3.917,5.715,6.246,8.802,6.991,9.277
		c0.746,0.474,2.758,0.507,6.053,0.081l0.807,4.148c-5.052,0.787-9.802,1.612-14.251,2.476c-5.312,1.033-10.355,2.112-15.114,3.232
		l-0.807-4.15c3.632-0.869,5.703-1.468,6.216-1.846c0.517-0.36,0.71-0.872,0.583-1.531c-0.113-0.582-1.136-2.406-3.073-5.489
		l-4.533-7.128c-3.817,0.676-8.052,1.467-12.735,2.377c-4.072,0.792-7.776,1.543-11.097,2.255l-1.019,5.581
		c-0.275,1.521-0.542,3.76-0.783,6.71c-0.068,0.665-0.051,1.25,0.05,1.769c0.134,0.691,0.528,1.12,1.179,1.287
		c0.652,0.167,2.864,0.048,6.633-0.374l0.806,4.149c-3.04,0.396-6.799,1.028-11.279,1.899c-4.26,0.827-7.622,1.58-10.1,2.256
		L135.267,216.221L135.267,216.221z M156.74,165.717l-5.107,25.594c2.853-0.426,5.962-0.963,9.374-1.627
		c3.552-0.69,6.936-1.414,10.165-2.171L156.74,165.717L156.74,165.717z M209.625,206.073c5.78-1.318,9.55-2.15,11.326-2.495
		c2.122-0.413,5.677-1.006,10.649-1.776l-0.733-3.773c-3.874,0.459-6.132,0.589-6.783,0.356c-0.363-0.108-0.634-0.333-0.825-0.639
		c-0.496-0.703-1.268-3.587-2.347-8.632c-1.46-6.844-2.666-12.711-3.613-17.583l-3.48-17.904c4.359,3.883,9.996,8.628,16.941,14.227
		c13.727,11.035,25.39,20.171,34.978,27.376c1.584-0.078,4.295-0.148,8.167-0.2l0.472-0.761c-1.158-4.946-2.22-9.91-3.191-14.909
		l-3.521-18.614l-3.449-18.499c-0.748-4.014-1.08-6.396-1.019-7.174c0.041-0.465,0.161-0.847,0.342-1.176
		c0.195-0.331,0.471-0.598,0.849-0.834c0.637-0.417,2.65-1.054,6.034-1.939l-0.733-3.773c-3.642,0.904-7.711,1.793-12.238,2.673
		c-3.315,0.645-6.652,1.195-10.02,1.654l0.733,3.772c3.86-0.456,6.052-0.67,6.587-0.611c0.517,0.062,0.898,0.266,1.158,0.591
		c0.509,0.603,1.102,2.396,1.808,5.358c1.104,5.005,2.331,10.982,3.681,17.93l3.559,18.312c-5.22-3.781-11.479-8.616-18.813-14.548
		c-11.001-8.84-20.928-17.106-29.774-24.768c-3.201,0.818-6.074,1.474-8.621,1.97c-2.294,0.446-5.867,1.042-10.681,1.782
		l0.733,3.773c4.075-0.433,6.453-0.536,7.139-0.279c0.432,0.129,0.799,0.416,1.06,0.838c0.501,0.734,1.239,3.69,2.245,8.863
		l3.896,19.536c0.731,3.757,1.736,9.353,3,16.774c0.79,4.48,1.076,7.132,0.891,7.936c-0.113,0.594-0.352,1.046-0.727,1.381
		c-0.582,0.455-2.717,1.131-6.411,2.012L209.625,206.073L209.625,206.073z M95.242,317.882l-0.734-3.773l2.715-0.723
		c2.208-0.56,3.514-1.222,3.952-1.992c0.44-0.754,0.34-3.035-0.302-6.841c-1.283-7.613-2.788-15.854-4.505-24.688
		c-0.913-4.7-1.969-10.042-3.164-16.024c-0.734-3.609-1.37-5.786-1.886-6.518c-0.267-0.356-0.661-0.622-1.208-0.76
		c-0.537-0.156-2.771,0.017-6.692,0.485l-0.734-3.772c3.723-0.658,7.359-1.332,10.912-2.023c4.135-0.804,8.106-1.608,11.929-2.417
		c2.408,3.578,4.873,7.112,7.395,10.602c1.786,2.475,9.603,12.979,23.43,31.499c6.406-23.024,10.743-39.903,13-50.619
		c3.73-0.529,7.254-1.117,10.571-1.761c3.898-0.757,7.636-1.582,11.231-2.476l0.733,3.773c-4.022,1.042-6.247,1.85-6.693,2.409
		c-0.425,0.573-0.495,2.071-0.184,4.507c0.563,3.902,1.898,11.277,4.003,22.109c1.06,5.454,2.232,11.229,3.505,17.278
		c1.278,6.064,2.15,9.469,2.624,10.224c0.313,0.43,0.681,0.733,1.139,0.906c0.458,0.171,2.685,0.048,6.697-0.374l0.733,3.773
		c-5.003,0.777-9.471,1.548-13.368,2.305c-3.931,0.765-9.241,1.895-15.963,3.396l-0.733-3.772l2.67-0.616
		c2.103-0.508,3.381-1.066,3.802-1.67c0.434-0.621,0.52-2.026,0.252-4.241c-0.283-2.213-1.197-7.336-2.761-15.384l-5.405-27.808
		c-2.899,10.434-6.528,24.075-10.907,40.912c-1.783,6.938-3.139,12.551-4.057,16.891l-2.987,0.581
		c-3.341-4.849-7.72-10.931-13.145-18.277l-22.289-29.729l1.216,6.256c3.367,17.322,5.75,29.242,7.146,35.756
		c0.611,2.638,1.278,4.221,2.01,4.716c0.735,0.508,3.106,0.456,7.104-0.126l0.733,3.773c-3.149,0.417-6.295,0.931-9.407,1.536
		C102.967,316.086,98.852,316.984,95.242,317.882L95.242,317.882z M188.75,295.399c2.847-0.716,4.568-1.345,5.158-1.917
		c0.398-0.387,0.896-1.691,1.491-3.911c1.095-4.357,2.405-10.37,3.936-18.025l8.509-43.088l6.791-1.32l30.396,45.428
		c3.917,5.715,6.247,8.803,6.991,9.277c0.746,0.476,2.758,0.508,6.053,0.081l0.807,4.149c-5.052,0.787-9.802,1.612-14.251,2.477
		c-5.312,1.033-10.355,2.111-15.114,3.231l-0.807-4.149c3.632-0.869,5.703-1.468,6.216-1.845c0.517-0.361,0.71-0.873,0.583-1.532
		c-0.113-0.583-1.136-2.406-3.073-5.488l-4.534-7.128c-3.816,0.675-8.051,1.466-12.734,2.376c-4.072,0.792-7.776,1.544-11.097,2.256
		l-1.019,5.58c-0.275,1.522-0.542,3.759-0.783,6.711c-0.068,0.665-0.051,1.249,0.05,1.768c0.134,0.691,0.528,1.121,1.179,1.287
		c0.652,0.167,2.864,0.049,6.633-0.375l0.806,4.15c-3.039,0.395-6.799,1.028-11.279,1.898c-4.26,0.829-7.621,1.58-10.1,2.257
		L188.75,295.399L188.75,295.399z M210.222,244.896l-5.106,25.593c2.853-0.426,5.962-0.963,9.374-1.626
		c3.552-0.691,6.936-1.414,10.166-2.172L210.222,244.896L210.222,244.896z M263.201,285.233c5.167-1.2,10.005-2.238,14.549-3.122
		c4.245-0.825,9.151-1.681,14.689-2.561l-0.733-3.773c-3.527,0.49-5.652,0.626-6.371,0.375c-0.536-0.157-0.928-0.407-1.196-0.778
		c-0.343-0.505-1.079-3.038-2.223-7.578c-1.485-6.041-2.613-11.01-3.374-14.923l-2.984-17.365l-2.366-13.684
		c2.354-0.654,4.221-1.114,5.621-1.387c4.386-0.852,7.888-0.458,10.489,1.175c2.601,1.632,4.261,4.294,4.985,8.019
		c0.831,4.277,0.086,7.832-2.248,10.682c-2.316,2.849-4.907,4.544-7.768,5.1c-0.598,0.116-1.522,0.229-2.772,0.343
		c-0.078,0.601-0.195,1.179-0.376,1.753l12.297,12.569c6.904,7.075,12.1,12.493,15.604,16.248c2.227-0.547,7.21-1.597,14.998-3.16
		l2.694-0.572l-0.677-3.489c-1.609,0.28-2.813,0.303-3.598,0.046c-0.781-0.24-2.084-1.161-3.907-2.731l-9.833-9.883l-12.663-12.938
		c4.867-3.166,8.101-6.339,9.681-9.533c1.6-3.183,2.042-6.614,1.328-10.292c-0.558-2.877-1.706-5.248-3.458-7.125
		c-1.748-1.862-3.875-3.064-6.339-3.581c-2.481-0.512-6.223-0.292-11.222,0.681l-23.037,4.771c-1.84,0.358-5.96,1.062-12.348,2.107
		l0.733,3.772c3.545-0.314,5.593-0.353,6.14-0.132c0.402,0.132,0.715,0.399,0.917,0.767c0.716,1.249,1.698,4.792,2.966,10.648
		c1.66,7.867,2.985,14.346,3.981,19.471c0.736,3.788,1.665,8.99,2.788,15.607c0.72,4.282,0.982,6.809,0.812,7.608
		c-0.063,0.437-0.259,0.768-0.553,1.021c-0.479,0.387-2.452,1.063-5.959,2.071L263.201,285.233L263.201,285.233z M343.953,269.537
		l-0.734-3.772c1.729-0.337,3.506-0.846,5.318-1.507c0.851-0.328,1.414-0.699,1.721-1.133c0.295-0.417,0.437-1.112,0.439-2.108
		c-0.053-1.36-0.805-6.238-2.292-14.644c-1.064-5.976-2.196-12.053-3.399-18.246c-2.368-12.182-3.604-18.371-3.729-18.589
		c-0.125-0.222-1.23-0.121-3.336,0.288c-4.274,0.832-7.929,1.672-10.977,2.526c-1.749,0.487-2.725,0.84-2.93,1.043
		c-0.204,0.202-0.327,0.504-0.374,0.921c-0.05,0.417,0.227,3.186,0.799,8.31l-3.961,0.77c-1.096-5.969-2.249-11.063-3.459-15.281
		l0.429-0.474c9.77-1.442,19.227-3.053,28.376-4.831c9.117-1.771,19.292-3.979,30.509-6.616l0.649,0.657
		c0.246,4.373,0.809,9.452,1.688,15.233l-3.867,0.752c-1.297-5.163-2.118-7.957-2.483-8.326c-0.271-0.307-0.805-0.447-1.599-0.423
		c-2.531,0.068-7.444,0.81-14.755,2.232c-0.611,0.118-0.954,0.284-1.044,0.496c-0.087,0.229,0.024,1.056,0.3,2.471l5.736,31.021
		c1.745,8.976,2.894,14.463,3.447,16.476c0.539,2.017,1.157,3.184,1.821,3.496c0.464,0.203,2.934,0.067,7.437-0.434l0.733,3.772
		c-4.533,0.687-9.329,1.52-14.375,2.501C353.407,267.405,348.05,268.545,343.953,269.537L343.953,269.537z M394.316,259.748
		l-0.732-3.773c4.106-1.026,6.382-1.828,6.818-2.434c0.438-0.592,0.535-1.866,0.282-3.84c-0.538-4.104-1.886-11.705-4.043-22.803
		c-0.825-4.245-2.084-10.394-3.781-18.45c-1.116-5.491-1.831-8.502-2.125-9c-0.275-0.499-0.667-0.832-1.171-0.995
		c-0.743-0.213-3.094-0.05-7.072,0.462l-0.733-3.773c6.308-1.03,11.12-1.868,14.438-2.512c5.721-1.112,10.875-2.213,15.458-3.299
		l0.734,3.773c-4.085,1.055-6.347,1.837-6.802,2.35c-0.453,0.527-0.596,1.551-0.46,3.09c0.322,3.004,1.361,9.017,3.115,18.04
		c2.334,12.01,4.009,20.379,5.023,25.093c0.999,4.715,1.826,7.458,2.456,8.267c0.252,0.374,0.706,0.613,1.33,0.718
		c0.644,0.12,2.78-0.05,6.429-0.498l0.733,3.772l-5.417,0.922c-3.417,0.549-6.474,1.095-9.146,1.615L394.316,259.748
		L394.316,259.748z M430.834,252.649c5.778-1.318,9.549-2.15,11.324-2.495c2.122-0.413,5.678-1.005,10.649-1.776l-0.732-3.773
		c-3.876,0.459-6.133,0.588-6.783,0.356c-0.363-0.109-0.634-0.333-0.825-0.64c-0.495-0.703-1.269-3.586-2.347-8.63
		c-1.46-6.844-2.665-12.711-3.613-17.584l-3.48-17.905c4.36,3.883,9.997,8.628,16.942,14.228
		c13.727,11.035,25.389,20.171,34.978,27.376c1.583-0.079,4.294-0.149,8.167-0.2l0.473-0.762c-1.157-4.946-2.22-9.91-3.191-14.909
		l-3.521-18.614l-3.448-18.499c-0.748-4.014-1.08-6.396-1.019-7.175c0.039-0.464,0.16-0.845,0.342-1.174
		c0.195-0.333,0.472-0.598,0.85-0.835c0.635-0.417,2.649-1.054,6.033-1.938l-0.734-3.773c-3.642,0.903-7.71,1.792-12.236,2.672
		c-3.317,0.645-6.652,1.195-10.021,1.653l0.733,3.773c3.859-0.456,6.052-0.67,6.586-0.612c0.517,0.063,0.899,0.266,1.159,0.592
		c0.507,0.602,1.101,2.396,1.808,5.357c1.103,5.006,2.33,10.983,3.681,17.931l3.56,18.313c-5.221-3.781-11.479-8.618-18.815-14.548
		c-11-8.84-20.927-17.107-29.772-24.767c-3.201,0.817-6.076,1.474-8.622,1.969c-2.295,0.446-5.866,1.043-10.681,1.783l0.733,3.773
		c4.075-0.434,6.453-0.537,7.14-0.279c0.432,0.128,0.799,0.416,1.06,0.837c0.502,0.735,1.239,3.692,2.244,8.863l3.896,19.537
		c0.729,3.757,1.735,9.352,2.999,16.774c0.79,4.48,1.076,7.131,0.89,7.936c-0.113,0.592-0.351,1.046-0.727,1.38
		c-0.581,0.455-2.717,1.131-6.411,2.013L430.834,252.649z"/>
</g>
</svg>
