<?xml version="1.0" encoding="utf-8"?>
<!-- Generator: Adobe Illustrator 16.0.0, SVG Export Plug-In . SVG Version: 6.00 Build 0)  -->
<!DOCTYPE svg PUBLIC "-//W3C//DTD SVG 1.1//EN" "http://www.w3.org/Graphics/SVG/1.1/DTD/svg11.dtd">
<svg version="1.1" id="Capa_1" xmlns="http://www.w3.org/2000/svg" xmlns:xlink="http://www.w3.org/1999/xlink" x="0px" y="0px"
	 width="659px" height="714.027px" viewBox="0 0 659 714.027" enable-background="new 0 0 659 714.027" xml:space="preserve">
<g>
	<g>
		<path fill-rule="evenodd" clip-rule="evenodd" fill="#FFFFFF" d="M8.364,132.387v0.487c0,4.13,5.072,4.057,8.666,4.963
			c3.519,0.889,7.868,1.848,11.388,2.728c7.493,1.872,15.161,3.203,19.752,7.993c6.208,6.477,4.002,38.399,4.002,51.971
			c0,37.314,0,74.63,0,111.945c0,74.468,0,148.935,0,223.404c0,36.411-1.533,76.628,15.216,96.244
			c10.076,11.801,18.311,16.22,34.484,21.489c6.029,1.966,16.378,3.633,23.353,4.394c4.992,0.544,7.407,1.012,13.104,1.012
			c5.5,0,9.428,0.946,13.124,0.992c16.759,0.206,37.314,1.072,52.21,3.28c8.413,1.247,15.753,2.257,24.029,3.716
			c8.037,1.417,16.362,3.61,23.565,4.666c11.748,1.725,31.483,10.143,41.051,14.925c6.058,3.03,12.008,6.655,17.457,10.288
			c2.963,1.977,5.486,3.607,8.379,5.735c2.216,1.629,5.8,6.043,8.073,6.043h1.461c1.548,0,12.056-9.279,14.105-10.716
			c4.469-3.139,10.627-7.218,15.579-9.733c11.934-6.057,21.986-10.257,36.318-14.303c14.312-4.04,26.362-5.694,42.255-8.368
			c15.607-2.627,29.612-2.822,46.535-4.087c14.725-1.101,31.557-2.631,46.272-4.35c18.612-2.175,27.501-1.639,40.368-10.255
			c20.084-13.445,32.125-35.582,32.124-69.115c-0.001-67.49,0-134.984,0-202.475c0-33.745,0-67.491,0-101.237
			c0-17.121,0.487-32.84,0.487-50.132c0-17.302-0.975-33.549-0.975-49.646v-5.84c0-17.294,4.012-21.574,16.692-26.629
			c4.219-1.681,12.232-2.99,17.188-4.23c4.338-1.084,15.283-1.897,15.283-6.618v-0.486c0-3.678-8.946-7.393-11.779-9.152
			c-4.431-2.749-8.712-5.037-13.143-7.787c-8.839-5.484-17.735-10.284-26.577-15.77c-17.466-10.837-35.479-21.107-53.139-31.554
			c-9.678-5.725-105.181-62.771-106.128-62.771h-1.461c-1.166,0-19.283,9.886-22.227,11.358c-7.456,3.729-15.343,7.093-23.711,9.875
			c-16.372,5.441-35.844,10.404-57.255,10.404h-7.788c-23.715,0-43.427-5.505-61.515-11.499c-8.749-2.898-17.87-6.823-25.786-10.72
			C236.673,11.482,215.919,0,215.723,0h-1.46c-2.465,0-94.221,58.873-103.678,65.221c-8.455,5.675-17.354,10.716-25.897,16.45
			c-8.055,5.408-17.475,11.681-25.861,16.487c-8.802,5.043-17.088,11.192-25.832,16.513c-4.473,2.722-8.537,5.25-12.858,8.073
			C17.402,124.53,8.364,128.827,8.364,132.387z"/>
		<path fill-rule="evenodd" clip-rule="evenodd" fill="#DB2624" d="M22.48,131.415c5.413,0.12,17.157,3.866,21.62,5.639
			c7.096,2.818,11.52,6.12,13.86,13.396c4.158,12.928,2.487,35.313,2.487,52.025c0,36.342,0,72.684,0,109.025
			c0,72.682,0,145.365,0,218.048c0,33.829-2.919,78.625,12.301,96.727c9.955,11.84,17.437,15.813,34.042,20.475
			c6.147,1.724,16.271,3.43,23.264,3.993c7.563,0.611,18.41,1.461,25.798,1.461c9.829-0.002,16.552,1.461,25.798,1.459
			c7.687-0.003,18.724,0.629,25.11,2.148c5.915,1.407,17.535,3.172,23.551,3.708c7.193,0.639,15.443,3.231,22.783,4.476
			c11.159,1.892,30.833,9.647,40.188,14.327c6.854,3.427,30.214,16.789,33.422,21.579c4.918-3.293,8.933-7.254,14.116-10.706
			c4.887-3.26,10.155-6.542,15.576-9.247c11.979-5.981,21.738-9.597,35.839-13.812c26.21-7.836,55.875-10.104,87.302-12.481
			c14.146-1.069,31.839-3.986,45.765-3.886c15.37,0.113,30.815-3.669,40.207-9.928c21.872-14.582,27.939-35.862,27.939-71.841
			c0-66.517,0-133.036,0-199.554c0-33.26,0-66.519,0-99.777c0-16.946,0.486-32.545,0.486-49.16c0-17.308-0.974-32.583-0.974-49.159
			v-3.893c0-4.947,1.625-12.824,2.859-16.609c1.717-5.266,4.916-8.015,9.204-10.752c5.775-3.688,21.841-8.926,30.283-9.629v-0.973
			c-2.61-0.697-20.733-12.092-24.533-14.404c-8.365-5.088-16.331-9.732-24.786-14.639c-16.701-9.69-32.942-19.596-49.476-29.377
			c-9.124-5.396-97.7-58.392-98.828-58.392c-0.22,0-19.836,10.725-22.546,12.012c-5.111,2.428-19.745,8.701-24.774,9.786
			c-8.888,1.918-18.221,5.764-27.676,6.885c-10.933,1.297-19.867,2.468-32.578,2.468h-4.38c-39.15,0-87.572-18.883-110.98-34.557
			c-8.248,4.363-15.968,10.542-24.179,15.247c-7.798,4.47-16.623,10.294-24.108,15.319c-15.724,10.556-32.127,20.484-48.196,30.656
			C102.07,79.75,86.311,89.883,70.078,100.16C64.536,103.668,23.149,128.908,22.48,131.415z"/>
		<path fill-rule="evenodd" clip-rule="evenodd" fill="#FFFDFB" d="M69.696,368.446l-0.162,2.434l1.136,136.767l-0.009,21.395
			l511.911-201.907l0.291,0.427l-1.583-160.616c-6.443,0.536-25.605,9.525-32.127,12.168c-10.643,4.313-21.466,8.323-32.126,12.654
			c-10.461,4.251-21.28,8.481-31.707,12.587c-10.62,4.182-21.585,8.957-32.126,12.654c-10.451,3.667-21.387,8.618-31.639,12.655
			c-10.729,4.225-21.446,8.41-32.06,12.723c-21.234,8.629-42.513,16.51-63.914,25.161c-42.577,17.211-85.197,33.241-127.719,50.429
			c-21.343,8.628-42.709,16.693-63.982,25.093c-10.517,4.152-21.541,8.887-32.245,12.535c-5.468,1.866-10.893,4.006-16.216,6.176
			C81.908,363.212,72.063,367.895,69.696,368.446z"/>
		<path fill-rule="evenodd" clip-rule="evenodd" fill="#FFFDFB" d="M507.779,368.934v271.587c11.701,0,21.011-2.396,30.293-4.264
			c5.941-1.198,20.815-8.021,20.815-13.744V348.49c-3.115,0.26-21.875,8.093-25.866,9.668
			C529.835,359.412,507.779,367.026,507.779,368.934z"/>
		<path fill-rule="evenodd" clip-rule="evenodd" fill="#FFFDFB" d="M197.713,31.15v274.995c6.291-1.465,19.462-7.628,26.216-10.288
			c3.083-1.213,25.381-9.149,25.381-11.127V38.451c0-1.582-6.783-3.51-8.477-4.179c-2.193-0.866-6.907-2.895-8.667-3.989
			c-1.514-0.941-15.878-9.354-15.958-9.354C212.335,20.929,201.349,30.178,197.713,31.15z"/>
		<path fill-rule="evenodd" clip-rule="evenodd" fill="#FFFDFB" d="M95.007,98.316l0.098,248.955l49.064-19.709V65.707
			C139.222,68.325,95.007,96.402,95.007,98.316z"/>
		<path fill-rule="evenodd" clip-rule="evenodd" fill="#FFFDFB" d="M300.015,449.939l-0.083,216.863
			c4.229,0.987,11.558,6.476,14.736,9.116c2.309,1.918,4.202,3.242,6.316,5.364c1.493,1.503,4.803,5.777,5.72,6.45
			c0.927-3.479,8.722-9.72,11.556-12.293c1.638-1.487,13.754-9.163,13.754-10.096l-0.019-235.625L300.015,449.939z"/>
		<path fill-rule="evenodd" clip-rule="evenodd" fill="#FFFDFB" d="M405.112,411.851l-0.041,239.866
			c3.028-0.706,6.029-2.979,10.122-3.997c3.804-0.942,8.058-1.499,12.23-2.37c5.839-1.219,20.419-1.91,27.299-1.91l0.121-39.422
			l-0.749-214.945L405.112,411.851z"/>
		<path fill-rule="evenodd" clip-rule="evenodd" fill="#FFFDFB" d="M298.958,264.775l52.084-19.469
			c0.011-66.106,0.022-131.152,0.035-197.26c-19.856,4.266-33.74,5.187-52.12-0.435V264.775z"/>
		<path fill-rule="evenodd" clip-rule="evenodd" fill="#FFFDFB" d="M405.071,36.99l0.003,186.903l49.161-18.498V31.15
			c-2.327-0.622-14.335-10.222-15.09-10.222C438.106,20.929,415.148,36.99,405.071,36.99z"/>
		<path fill-rule="evenodd" clip-rule="evenodd" fill="#FFFDFB" d="M197.772,490.28l-0.059,156.569h1.46
			c3.737,0,10.292,0.213,13.143,0.974c2.94,0.78,9.459,0.616,13.103,1.013c3.723,0.404,8.231,1.272,12.014,2.1
			c3.145,0.688,9.485,3.057,11.39,3.214l-0.068-183.669L197.772,490.28z"/>
		<path fill-rule="evenodd" clip-rule="evenodd" fill="#FFFDFB" d="M95.007,532.471v98.803c0,7.8,33.873,12.654,44.295,12.654h5.354
			V511.053c-6.305,1.469-18.469,7.611-25.246,10.286c-3.953,1.562-8.206,3.332-12.39,5.136
			C105.065,527.316,95.007,530.888,95.007,532.471z"/>
		<polygon fill-rule="evenodd" clip-rule="evenodd" fill="#FFFDFB" points="507.779,183.006 558.888,163.538 558.733,93.237 
			507.779,64.734 		"/>
		<polygon fill-rule="evenodd" clip-rule="evenodd" fill="#DB2624" points="493.229,239.603 498.812,291.699 466.894,250.183 
			446.282,258.026 474.313,328.352 487.633,323.063 467.543,270.982 501.498,317.466 515.12,312.468 507.954,254.97 
			528.247,306.699 542.099,301.667 513.99,231.383 		"/>
		<polygon fill-rule="evenodd" clip-rule="evenodd" fill="#DB2624" points="223.56,348.126 223.663,429.632 239.088,422.472 
			239.09,404.955 265.725,393.917 266.226,393.889 279.061,407.045 294.196,400.954 238.349,342.893 238.462,342.296 		"/>
		<path fill-rule="evenodd" clip-rule="evenodd" fill="#DB2624" d="M332.546,316.366v2.921c0,10.101,10.177,18.496,20.931,18.496
			l3.437,0.289l19.927-2.235h4.867c1.985,0,4.869,3.375,4.869,5.84v3.408c0,4.75-8.675,11.194-13.145,11.194h-5.354
			c-4.424,0-10.869-4.371-11.194-8.275c-1.832,0.155-13.629,5.97-13.629,6.815c0,5.412,13.145,15.575,20.443,15.575h6.814
			c5.826,0,16.594-5.674,20.551-8.168c4.904-3.09,11.089-9.937,11.089-17.628v-4.38c0-5.555-4.025-11.086-6.935-13.994
			c-4.02-4.019-7.146-5.961-14.969-5.961l-4.899-0.231l-16.52,2.178h-6.327c-2.332,0-5.354-1.69-5.354-4.38v-2.435
			c0-4.423,10.364-9.734,15.09-9.734h1.46c6.163,0,7.377,5.841,9.734,5.841c1.636,0,13.145-5.195,13.145-5.841
			c0-4.223-10.28-13.628-17.037-13.628h-5.354C351.832,292.031,332.546,303.791,332.546,316.366z"/>
		<path fill-rule="evenodd" clip-rule="evenodd" fill="#DB2624" d="M90.14,421.011v4.867c0,17.575,16.886,40.885,33.1,40.885h7.788
			c7.899,0,16.909-5.958,21.052-10.102c5.436-5.434,8.641-11.818,8.641-22.509l-0.006-4.466l-16.057,1.059v10.222
			c0,4.641-7.525,12.167-12.169,12.167h-6.814c-9.321,0-19.957-18.874-19.957-29.204v-6.813c0-7.093,8.958-14.115,16.063-14.115
			h2.921c3.713,0,9.104,4.42,10.847,7.02l12.517-8.967c-3.684-5.501-11.364-12.166-20.443-12.166h-4.868
			C107.206,388.889,90.14,405.159,90.14,421.011z"/>
		<polygon fill-rule="evenodd" clip-rule="evenodd" fill="#FFFDFB" points="238.27,391.318 256.908,383.749 237.605,363.092 		"/>
		<polygon fill-rule="evenodd" clip-rule="evenodd" fill="#DB2624" points="550.632,281.86 555.523,295.552 569.203,290.535 
			564.143,276.683 		"/>
		<polygon fill-rule="evenodd" clip-rule="evenodd" fill="#DB2624" points="415.315,336.381 420.188,349.453 420.341,349.94 
			434.009,345.001 428.781,331.096 		"/>
		<path fill-rule="evenodd" clip-rule="evenodd" fill="#DB2624" d="M296.525,384.021l4.429,14.232l13.545-5.559l0.502-0.104
			l-5.333-12.95h-1.461C306.678,379.64,299.204,383.396,296.525,384.021z"/>
		<path fill-rule="evenodd" clip-rule="evenodd" fill="#DB2624" d="M175.809,432.693l4.522,13.986l13.841-5.367l-5.22-13.002h-1.459
			C185.647,428.311,178.801,431.995,175.809,432.693z"/>
	</g>
</g>
</svg>
